<svg width="99" height="99" viewBox="0 0 99 99" fill="none" xmlns="http://www.w3.org/2000/svg">
<path fill-rule="evenodd" clip-rule="evenodd" d="M94.3554 12.1233C94.3554 14.4317 93.3775 16.5145 91.8162 17.9844C96.3385 24.6929 98.7205 32.4884 98.7206 40.652C98.7206 41.711 97.8619 42.5697 96.8025 42.5697H58.0596C57.0002 42.5697 56.1415 41.7112 56.1415 40.652V1.9177C56.1415 0.858747 57.0002 0 58.0596 0C62.8411 0 67.524 0.822503 71.9783 2.4445C72.9736 2.80694 73.4865 3.9077 73.124 4.9028C72.7613 5.8979 71.6611 6.41126 70.6652 6.04824C67.2302 4.79733 63.6431 4.07167 59.9776 3.88412V31.0637H72.8286C73.888 31.0637 74.7467 31.9225 74.7467 32.9814C74.7467 34.0404 73.888 34.8991 72.8286 34.8991H59.9776V38.7343H94.8361C94.4908 31.9413 92.3101 25.4828 88.4673 19.8789C87.777 20.072 87.0506 20.1775 86.2994 20.1775C81.8572 20.1775 78.2435 16.5645 78.2435 12.1233C78.2435 7.68213 81.8572 4.06917 86.2994 4.06917C90.7416 4.06917 94.3554 7.68232 94.3554 12.1233ZM96.7904 47.1966C95.7311 47.1966 94.8723 48.0551 94.8723 49.1141C94.8716 60.8961 90.362 72.054 82.1741 80.5326C73.7779 89.2271 62.498 94.132 50.4117 94.3441C50.1387 94.3489 49.8682 94.3514 49.5959 94.3512C37.812 94.3508 26.6837 89.8607 18.1839 81.6558C2.17574 66.2033 -0.157475 41.0176 12.6944 22.9384C13.7672 23.4681 14.9735 23.767 16.2487 23.767C20.6907 23.767 24.3046 20.1541 24.3046 15.7129C24.3046 11.2717 20.6908 7.65872 16.2487 7.65872C11.8065 7.65872 8.19271 11.2717 8.19271 15.7129C8.19271 17.4875 8.77102 19.1289 9.74735 20.4613C2.91997 29.9361 -0.291744 41.5927 0.704148 53.2886C1.71078 65.1102 6.97221 76.1646 15.5194 84.415C24.7404 93.3158 36.8104 98.1866 49.5942 98.1866C49.8888 98.1866 50.1838 98.1839 50.479 98.1787C63.5898 97.9486 75.8259 92.6279 84.9339 83.1965C93.816 73.999 98.7078 61.8952 98.7086 49.1143C98.7084 48.0553 97.8498 47.1966 96.7904 47.1966ZM16.2488 11.4934C18.5757 11.4934 20.4685 13.386 20.4685 15.7122C20.4685 18.0385 18.5755 19.9309 16.2488 19.9309C13.9219 19.9309 12.0291 18.0384 12.0291 15.7122C12.0291 13.386 13.9219 11.4934 16.2488 11.4934ZM51.457 47.2532H84.4478C85.507 47.2532 86.3657 48.112 86.3657 49.1709C86.3657 66.912 73.7224 82.1359 56.3025 85.3701C56.1842 85.392 56.0662 85.4027 55.9502 85.4027C55.0439 85.4027 54.2379 84.7578 54.0664 83.8348C53.8728 82.7935 54.5605 81.7926 55.602 81.5991C70.5736 78.8194 81.6061 66.1503 82.4744 51.0886H49.5388C48.4794 51.0886 47.6207 50.2299 47.6207 49.1709V16.2424C30.319 17.2392 16.548 31.6278 16.548 49.1709C16.548 64.5126 27.404 78.055 42.3614 81.3717C43.3954 81.6012 44.048 82.6251 43.8186 83.6591C43.5892 84.6933 42.5651 85.3457 41.5306 85.1162C33.4797 83.3308 26.1666 78.8033 20.9384 72.3675C15.6334 65.8371 12.7119 57.5992 12.7119 49.1709C12.7119 28.8692 29.2324 12.3522 49.5388 12.352C50.5982 12.352 51.457 13.2107 51.457 14.2697V47.2532ZM49.6198 82.1538H49.5389C48.4795 82.1538 47.6207 83.0125 47.6207 84.0715C47.6207 85.1304 48.4795 85.9892 49.5389 85.9892H49.6198C50.6792 85.9892 51.538 85.1304 51.538 84.0715C51.538 83.0125 50.6792 82.1538 49.6198 82.1538ZM86.2991 16.3421C83.9722 16.3421 82.0794 14.4495 82.0794 12.1233C82.0794 9.79699 83.9724 7.90461 86.2991 7.90461C88.6258 7.90461 90.5188 9.79718 90.5188 12.1233C90.519 14.4495 88.626 16.3421 86.2991 16.3421ZM79.9254 31.0641C80.4299 31.0641 80.9248 31.2693 81.2816 31.626C81.6384 31.9827 81.8436 32.4775 81.8436 32.9818C81.8436 33.4862 81.6384 33.981 81.2816 34.3375C80.9248 34.6942 80.4299 34.8993 79.9254 34.8995C79.4209 34.8995 78.9261 34.6942 78.5693 34.3375C78.2125 33.981 78.0072 33.4862 78.0072 32.9818C78.0072 32.4775 78.2125 31.9827 78.5693 31.626C78.9261 31.2691 79.4209 31.0641 79.9254 31.0641Z" fill="#F94040"/>
</svg>
