<svg width="935" height="287" viewBox="0 0 935 287" fill="none" xmlns="http://www.w3.org/2000/svg">
<g clip-path="url(#clip0)">
<path d="M849.558 284.814C848.286 285.599 846.681 285.609 845.399 284.839L764.425 236.232C763.221 235.509 762.484 234.207 762.484 232.802V58.7926C762.484 57.3589 761.717 56.0348 760.473 55.322L696.863 18.8713C695.611 18.154 694.07 18.1663 692.83 18.9036L630.921 55.7073C629.708 56.4282 628.965 57.7348 628.965 59.1456V234.124C628.965 235.562 628.193 236.89 626.942 237.601L544.009 284.747C542.761 285.457 541.228 285.443 539.993 284.711L458.16 236.228C456.945 235.508 456.199 234.2 456.199 232.787V59.7422C456.199 58.3296 455.454 57.0217 454.239 56.3014L391.142 18.8948C389.907 18.1625 388.373 18.1486 387.125 18.8583L321.942 55.9177C320.692 56.6287 319.919 57.9564 319.919 59.395V146.166V233.015C319.919 234.412 319.191 235.707 317.998 236.433L238.727 284.656C237.473 285.419 235.902 285.434 234.634 284.695L153.872 237.608C152.643 236.891 151.887 235.576 151.887 234.153V59.3851C151.887 57.9519 151.12 56.6281 149.877 55.9151L85.2854 18.8754C84.0306 18.1559 82.4852 18.1698 81.2436 18.9118L17.3578 57.0903C16.1495 57.8124 15.4097 59.1164 15.4097 60.5239V136.028C15.4097 137.466 16.1815 138.793 17.4313 139.504L84.9171 177.91C86.2 178.64 86.9765 180.017 86.9373 181.493L86.7802 187.402C86.7008 190.388 83.4948 192.236 80.8705 190.809L2.50981 148.192C1.22236 147.492 0.420898 146.144 0.420898 144.678V51.8278C0.420898 50.417 1.1641 49.1105 2.37677 48.3896L81.2439 1.50111C82.4856 0.76291 84.0288 0.751526 85.2812 1.47132L164.869 47.2123C166.11 47.9258 166.876 49.2485 166.876 50.6804V225.455C166.876 226.875 167.629 228.19 168.855 228.907L234.432 267.283C235.703 268.027 237.278 268.013 238.535 267.246L303.013 227.929C304.204 227.203 304.931 225.909 304.931 224.514V137.563V50.6912C304.931 49.2535 305.702 47.9265 306.951 47.2151L387.321 1.45626C388.57 0.745197 390.104 0.75876 391.341 1.4918L469.426 47.7969C470.64 48.5173 471.385 49.825 471.385 51.2375V224.282C471.385 225.695 472.131 227.004 473.347 227.724L540.192 267.309C541.426 268.04 542.957 268.054 544.205 267.346L611.951 228.898C613.203 228.188 613.976 226.859 613.976 225.419V50.6387C613.976 49.2292 614.718 47.9238 615.929 47.2023L692.632 1.50256C693.872 0.763431 695.415 0.750338 696.668 1.46831L775.461 46.6199C776.705 47.3327 777.473 48.6568 777.473 50.0905V224.298C777.473 225.703 778.209 227.004 779.413 227.727L845.205 267.239C846.486 268.008 848.087 268 849.36 267.217L917.764 225.162C918.948 224.434 919.669 223.144 919.669 221.755V149.776C919.669 148.339 918.898 147.012 917.649 146.301L847.705 106.461C846.47 105.757 845.701 104.452 845.685 103.031L845.595 95.267C845.559 92.183 848.88 90.2205 851.564 91.7392L932.628 137.601C933.882 138.311 934.658 139.641 934.658 141.082V230.066C934.658 231.453 933.939 232.741 932.759 233.47L849.558 284.814Z" fill="url(#paint0_linear)" stroke="black" stroke-width="2"/>
<path d="M789.898 135.98L782.601 122.729L843.936 88.3164V105.523L789.898 135.98Z" fill="#7A7A7A"/>
<path d="M695.429 196.5L630.74 156.747L638.629 143.892L695.429 178.898L753.215 143.892L760.906 156.945L695.429 196.5Z" fill="#7A7A7A"/>
<path d="M599.777 139.343L541.991 106.709L485.98 139.145L478.485 126.289L541.991 89.5029L607.271 126.092L599.777 139.343Z" fill="#7A7A7A"/>
<path d="M390.131 196.5L324.456 156.945L332.345 143.892L389.934 178.898L445.747 144.089L453.636 156.747L390.131 196.5Z" fill="#7A7A7A"/>
<path d="M178.512 139.343L171.215 126.092L237.284 89.5029L301.381 126.092L293.886 139.343L237.087 106.709L178.512 139.343Z" fill="#7A7A7A"/>
<path d="M88.3818 193.929V179.095L141.237 147.056L148.534 158.724L88.3818 193.929Z" fill="#7A7A7A"/>
<path d="M236.298 9.40381V82.5809" stroke="white" stroke-width="0.5" stroke-miterlimit="10" stroke-dasharray="1 1"/>
<path d="M542.779 9.40381V82.5809" stroke="white" stroke-width="0.5" stroke-miterlimit="10" stroke-dasharray="1 1"/>
<path d="M847.092 9.40381V82.5809" stroke="white" stroke-width="0.5" stroke-miterlimit="10" stroke-dasharray="1 1"/>
<path d="M85.6211 207.378V280.555" stroke="white" stroke-width="0.5" stroke-miterlimit="10" stroke-dasharray="1 1"/>
<path d="M389.735 207.378V280.555" stroke="white" stroke-width="0.5" stroke-miterlimit="10" stroke-dasharray="1 1"/>
<path d="M693.653 207.378V280.555" stroke="white" stroke-width="0.5" stroke-miterlimit="10" stroke-dasharray="1 1"/>
<path d="M64.5904 96.8172C65.7104 96.8172 66.5904 97.0812 67.2304 97.6092C67.8704 98.1372 68.1904 98.8812 68.1904 99.8412C68.1904 100.497 68.0144 101.137 67.6624 101.761C67.3264 102.369 66.9104 102.929 66.4144 103.441C65.9344 103.953 65.2944 104.569 64.4944 105.289C63.8384 105.897 63.3504 106.361 63.0304 106.681C62.7104 106.985 62.4224 107.313 62.1664 107.665H67.0384C67.4704 107.665 67.7904 107.633 67.9984 107.569C68.2224 107.489 68.3744 107.369 68.4544 107.209C68.5344 107.033 68.5984 106.777 68.6464 106.441H69.0544C69.0544 107.913 69.0864 108.977 69.1504 109.633C68.7984 109.553 67.6064 109.513 65.5744 109.513H59.9584V109.105C60.2304 108.817 60.6944 108.361 61.3504 107.737C62.2624 106.889 63.0224 106.129 63.6304 105.457C64.2384 104.769 64.7584 103.993 65.1904 103.129C65.6384 102.265 65.8624 101.345 65.8624 100.369C65.8624 98.6412 65.0624 97.7772 63.4624 97.7772C62.1504 97.7772 61.0784 98.5292 60.2464 100.033L59.8624 99.8172C60.2784 98.9532 60.8704 98.2412 61.6384 97.6812C62.4064 97.1052 63.3904 96.8172 64.5904 96.8172ZM77.5388 96.8172C78.6588 96.8172 79.6588 97.0812 80.5388 97.6092C81.4188 98.1212 82.1068 98.8572 82.6028 99.8172C83.0988 100.777 83.3468 101.881 83.3468 103.129C83.3468 104.409 83.0908 105.561 82.5788 106.585C82.0668 107.593 81.3468 108.393 80.4188 108.985C79.5068 109.561 78.4588 109.849 77.2748 109.849C76.1708 109.849 75.1788 109.593 74.2988 109.081C73.4188 108.553 72.7228 107.809 72.2108 106.849C71.7148 105.889 71.4668 104.777 71.4668 103.513C71.4668 102.249 71.7148 101.113 72.2108 100.105C72.7228 99.0812 73.4348 98.2812 74.3468 97.7052C75.2748 97.1132 76.3388 96.8172 77.5388 96.8172ZM77.3228 97.2492C76.6348 97.2492 76.0188 97.4972 75.4748 97.9932C74.9468 98.4732 74.5308 99.1852 74.2268 100.129C73.9388 101.057 73.7948 102.161 73.7948 103.441C73.7948 105.473 74.1388 106.977 74.8268 107.953C75.5148 108.929 76.4028 109.417 77.4908 109.417C78.1788 109.417 78.7868 109.169 79.3148 108.673C79.8588 108.177 80.2748 107.465 80.5628 106.537C80.8668 105.593 81.0188 104.481 81.0188 103.201C81.0188 101.185 80.6748 99.6892 79.9868 98.7132C79.2988 97.7372 78.4108 97.2492 77.3228 97.2492ZM90.6814 107.041C90.6814 107.793 90.8494 108.313 91.1854 108.601C91.5374 108.873 92.1374 109.009 92.9854 109.009V109.513C91.2574 109.449 90.1534 109.417 89.6734 109.417C89.2254 109.417 88.1854 109.441 86.5534 109.489L85.9774 109.513V109.009C86.8254 109.009 87.4574 108.865 87.8734 108.577C88.3054 108.289 88.5214 107.777 88.5214 107.041V101.233C88.5214 100.465 88.4414 99.9052 88.2814 99.5532C88.1214 99.1852 87.8494 98.9452 87.4654 98.8332C87.0974 98.7052 86.5214 98.6412 85.7374 98.6412V98.1132C86.9054 98.0812 87.8654 97.9772 88.6174 97.8012C89.3854 97.6252 90.0734 97.3212 90.6814 96.8892V107.041ZM100.668 99.0012C101.436 99.0012 102.148 99.2092 102.804 99.6252C103.46 100.041 103.988 100.649 104.388 101.449C104.788 102.233 104.988 103.161 104.988 104.233C104.988 105.401 104.748 106.409 104.268 107.257C103.804 108.105 103.172 108.753 102.372 109.201C101.572 109.633 100.684 109.849 99.7082 109.849C98.1722 109.849 96.9722 109.249 96.1082 108.049C95.2442 106.849 94.8122 105.177 94.8122 103.033C94.8122 100.793 95.2362 98.8972 96.0842 97.3452C96.9482 95.7772 97.9962 94.5852 99.2282 93.7692C100.46 92.9372 101.7 92.4012 102.948 92.1612L103.044 92.6412C102.068 92.9612 101.188 93.3932 100.404 93.9372C99.6362 94.4812 98.9562 95.3212 98.3642 96.4572C97.7722 97.5932 97.3962 99.0892 97.2362 100.945C97.6042 100.273 98.1082 99.7852 98.7482 99.4812C99.3882 99.1612 100.028 99.0012 100.668 99.0012ZM99.9482 109.369C100.732 109.369 101.38 108.961 101.892 108.145C102.404 107.329 102.66 106.081 102.66 104.401C102.66 102.769 102.42 101.577 101.94 100.825C101.46 100.073 100.836 99.6972 100.068 99.6972C99.5082 99.6972 98.9482 99.8652 98.3882 100.201C97.8442 100.521 97.4362 101.041 97.1642 101.761C97.1482 102.017 97.1402 102.425 97.1402 102.985C97.1402 105.289 97.4122 106.929 97.9562 107.905C98.5002 108.881 99.1642 109.369 99.9482 109.369Z" fill="#233A75"/>
<path d="M219.671 184.394C220.791 184.394 221.671 184.658 222.311 185.186C222.951 185.714 223.271 186.458 223.271 187.418C223.271 188.074 223.095 188.714 222.743 189.338C222.407 189.946 221.991 190.506 221.495 191.018C221.015 191.53 220.375 192.146 219.575 192.866C218.919 193.474 218.431 193.938 218.111 194.258C217.791 194.562 217.503 194.89 217.247 195.242H222.119C222.551 195.242 222.871 195.21 223.079 195.146C223.303 195.066 223.455 194.946 223.535 194.786C223.615 194.61 223.679 194.354 223.727 194.018H224.135C224.135 195.49 224.167 196.554 224.231 197.21C223.879 197.13 222.687 197.09 220.655 197.09H215.039V196.682C215.311 196.394 215.775 195.938 216.431 195.314C217.343 194.466 218.103 193.706 218.711 193.034C219.319 192.346 219.839 191.57 220.271 190.706C220.719 189.842 220.943 188.922 220.943 187.946C220.943 186.218 220.143 185.354 218.543 185.354C217.231 185.354 216.159 186.106 215.327 187.61L214.943 187.394C215.359 186.53 215.951 185.818 216.719 185.258C217.487 184.682 218.471 184.394 219.671 184.394ZM232.62 184.394C233.74 184.394 234.74 184.658 235.62 185.186C236.5 185.698 237.188 186.434 237.684 187.394C238.18 188.354 238.428 189.458 238.428 190.706C238.428 191.986 238.172 193.138 237.66 194.162C237.148 195.17 236.428 195.97 235.5 196.562C234.588 197.138 233.54 197.426 232.356 197.426C231.252 197.426 230.26 197.17 229.38 196.658C228.5 196.13 227.804 195.386 227.292 194.426C226.796 193.466 226.548 192.354 226.548 191.09C226.548 189.826 226.796 188.69 227.292 187.682C227.804 186.658 228.516 185.858 229.428 185.282C230.356 184.69 231.42 184.394 232.62 184.394ZM232.404 184.826C231.716 184.826 231.1 185.074 230.556 185.57C230.028 186.05 229.612 186.762 229.308 187.706C229.02 188.634 228.876 189.738 228.876 191.018C228.876 193.05 229.22 194.554 229.908 195.53C230.596 196.506 231.484 196.994 232.572 196.994C233.26 196.994 233.868 196.746 234.396 196.25C234.94 195.754 235.356 195.042 235.644 194.114C235.948 193.17 236.1 192.058 236.1 190.778C236.1 188.762 235.756 187.266 235.068 186.29C234.38 185.314 233.492 184.826 232.404 184.826ZM245.762 194.618C245.762 195.37 245.93 195.89 246.266 196.178C246.618 196.45 247.218 196.586 248.066 196.586V197.09C246.338 197.026 245.234 196.994 244.754 196.994C244.306 196.994 243.266 197.018 241.634 197.066L241.058 197.09V196.586C241.906 196.586 242.538 196.442 242.954 196.154C243.386 195.866 243.602 195.354 243.602 194.618V188.81C243.602 188.042 243.522 187.482 243.362 187.13C243.202 186.762 242.93 186.522 242.546 186.41C242.178 186.282 241.602 186.218 240.818 186.218V185.69C241.986 185.658 242.946 185.554 243.698 185.378C244.466 185.202 245.154 184.898 245.762 184.466V194.618ZM258.125 185.258C257.885 185.818 257.469 186.674 256.877 187.826C256.253 189.026 255.749 190.066 255.365 190.946C254.981 191.81 254.653 192.81 254.381 193.946C254.109 195.066 253.973 196.258 253.973 197.522C253.973 197.842 253.989 198.226 254.021 198.674C254.053 199.026 254.069 199.274 254.069 199.418C254.069 199.786 253.965 200.082 253.757 200.306C253.549 200.53 253.277 200.642 252.941 200.642C252.589 200.642 252.317 200.514 252.125 200.258C251.949 200.002 251.861 199.682 251.861 199.298C251.861 198.066 252.045 196.85 252.413 195.65C252.797 194.45 253.253 193.346 253.781 192.338C254.325 191.314 255.029 190.09 255.893 188.666L257.021 186.77H251.333C250.901 186.77 250.573 186.81 250.349 186.89C250.141 186.954 249.997 187.074 249.917 187.25C249.837 187.41 249.773 187.658 249.725 187.994H249.317C249.317 186.41 249.285 185.29 249.221 184.634C249.589 184.714 250.781 184.754 252.797 184.754H258.125V185.258Z" fill="#233A75"/>
<path d="M342.977 87.1374C342.865 88.2734 342.809 89.2974 342.809 90.2094C342.809 91.0094 342.833 91.6654 342.881 92.1774H342.329C342.201 90.9454 342.041 90.0334 341.849 89.4414C341.657 88.8334 341.321 88.3934 340.841 88.1214C340.361 87.8334 339.625 87.6894 338.633 87.6894H337.337V101.345C337.337 102.017 337.401 102.505 337.529 102.809C337.657 103.113 337.881 103.321 338.201 103.433C338.521 103.545 339.041 103.617 339.761 103.649V104.129C338.929 104.081 337.753 104.057 336.233 104.057C334.633 104.057 333.449 104.081 332.681 104.129V103.649C333.401 103.617 333.921 103.545 334.241 103.433C334.561 103.321 334.785 103.113 334.913 102.809C335.041 102.505 335.105 102.017 335.105 101.345V87.6894H333.809C332.817 87.6894 332.081 87.8334 331.601 88.1214C331.121 88.3934 330.785 88.8334 330.593 89.4414C330.401 90.0334 330.241 90.9454 330.113 92.1774H329.561C329.609 91.6654 329.633 91.0094 329.633 90.2094C329.633 89.2974 329.577 88.2734 329.465 87.1374C330.793 87.1854 333.049 87.2094 336.233 87.2094C339.401 87.2094 341.649 87.1854 342.977 87.1374ZM349.22 91.4334C350.852 91.4334 352.164 91.9774 353.156 93.0654C354.164 94.1374 354.668 95.7694 354.668 97.9614C354.668 100.153 354.164 101.785 353.156 102.857C352.164 103.929 350.852 104.465 349.22 104.465C347.588 104.465 346.268 103.929 345.26 102.857C344.268 101.785 343.772 100.153 343.772 97.9614C343.772 95.7694 344.268 94.1374 345.26 93.0654C346.268 91.9774 347.588 91.4334 349.22 91.4334ZM349.22 91.9134C348.26 91.9134 347.5 92.4094 346.94 93.4014C346.38 94.3774 346.1 95.8974 346.1 97.9614C346.1 100.025 346.38 101.545 346.94 102.521C347.5 103.497 348.26 103.985 349.22 103.985C350.18 103.985 350.94 103.497 351.5 102.521C352.06 101.545 352.34 100.025 352.34 97.9614C352.34 95.8974 352.06 94.3774 351.5 93.4014C350.94 92.4094 350.18 91.9134 349.22 91.9134ZM366.91 102.377C367.214 102.777 367.486 103.073 367.726 103.265C367.966 103.457 368.254 103.577 368.59 103.625V104.129C367.63 104.065 366.982 104.033 366.646 104.033C366.214 104.033 365.326 104.065 363.982 104.129V103.625C364.206 103.625 364.382 103.585 364.51 103.505C364.654 103.409 364.726 103.297 364.726 103.169C364.726 103.041 364.678 102.921 364.582 102.809L361.822 98.7774C361.55 98.3774 361.286 98.1134 361.03 97.9854C360.79 97.8414 360.454 97.7534 360.022 97.7214V101.897C360.022 102.553 360.134 103.009 360.358 103.265C360.598 103.505 361.014 103.625 361.606 103.625V104.129C360.262 104.065 359.374 104.033 358.942 104.033C358.478 104.033 357.51 104.065 356.038 104.129V103.625C356.71 103.625 357.182 103.505 357.454 103.265C357.726 103.009 357.862 102.553 357.862 101.897V88.1934C357.862 87.4574 357.726 86.9214 357.454 86.5854C357.182 86.2494 356.71 86.0814 356.038 86.0814V85.5774C356.55 85.6254 357.046 85.6494 357.526 85.6494C358.534 85.6494 359.366 85.5374 360.022 85.3134V97.2174C360.486 97.1534 360.87 97.0494 361.174 96.9054C361.494 96.7454 361.798 96.5214 362.086 96.2334L363.862 94.3854C364.374 93.8574 364.63 93.4174 364.63 93.0654C364.63 92.7934 364.462 92.5934 364.126 92.4654C363.806 92.3214 363.382 92.2494 362.854 92.2494V91.7694C363.974 91.8334 364.878 91.8654 365.566 91.8654C366.318 91.8654 367.014 91.8334 367.654 91.7694V92.2494C366.87 92.3134 366.15 92.6894 365.494 93.3774L362.566 96.4494L366.91 102.377ZM379.185 101.249C378.897 102.129 378.353 102.889 377.553 103.529C376.769 104.153 375.817 104.465 374.697 104.465C373.561 104.465 372.577 104.209 371.745 103.697C370.913 103.169 370.273 102.441 369.825 101.513C369.393 100.569 369.177 99.4814 369.177 98.2494C369.177 96.8574 369.401 95.6494 369.849 94.6254C370.297 93.6014 370.929 92.8174 371.745 92.2734C372.561 91.7134 373.513 91.4334 374.601 91.4334C376.041 91.4334 377.145 91.8734 377.913 92.7534C378.697 93.6174 379.089 94.9374 379.089 96.7134H371.577C371.529 97.1614 371.505 97.6734 371.505 98.2494C371.505 99.3054 371.673 100.225 372.009 101.009C372.361 101.793 372.817 102.401 373.377 102.833C373.953 103.249 374.553 103.457 375.177 103.457C375.945 103.457 376.625 103.273 377.217 102.905C377.809 102.537 378.305 101.921 378.705 101.057L379.185 101.249ZM374.505 91.8894C373.753 91.8894 373.105 92.2574 372.561 92.9934C372.017 93.7294 371.681 94.8174 371.553 96.2574H376.785C376.817 95.0094 376.633 93.9694 376.233 93.1374C375.849 92.3054 375.273 91.8894 374.505 91.8894ZM388.974 91.4334C390.094 91.4334 390.942 91.7374 391.518 92.3454C391.822 92.6654 392.038 93.0654 392.166 93.5454C392.294 94.0254 392.358 94.6734 392.358 95.4894V101.897C392.358 102.553 392.494 103.009 392.766 103.265C393.038 103.505 393.51 103.625 394.182 103.625V104.129C392.71 104.065 391.75 104.033 391.302 104.033C390.854 104.033 389.958 104.065 388.614 104.129V103.625C389.206 103.625 389.614 103.505 389.838 103.265C390.078 103.009 390.198 102.553 390.198 101.897V94.9614C390.198 94.0654 390.07 93.3854 389.814 92.9214C389.558 92.4414 389.038 92.2014 388.254 92.2014C387.598 92.2014 387.014 92.3934 386.502 92.7774C385.99 93.1614 385.59 93.6894 385.302 94.3614C385.03 95.0174 384.894 95.7534 384.894 96.5694V101.897C384.894 102.553 385.006 103.009 385.23 103.265C385.47 103.505 385.886 103.625 386.478 103.625V104.129C385.134 104.065 384.238 104.033 383.79 104.033C383.342 104.033 382.382 104.065 380.91 104.129V103.625C381.582 103.625 382.054 103.505 382.326 103.265C382.598 103.009 382.734 102.553 382.734 101.897V94.3854C382.734 93.6494 382.598 93.1134 382.326 92.7774C382.054 92.4414 381.582 92.2734 380.91 92.2734V91.7694C381.422 91.8174 381.918 91.8414 382.398 91.8414C383.406 91.8414 384.238 91.7294 384.894 91.5054V94.3374C385.294 93.3134 385.846 92.5774 386.55 92.1294C387.27 91.6654 388.078 91.4334 388.974 91.4334ZM406.655 86.8734C407.359 86.8734 407.911 86.9534 408.311 87.1134C408.727 87.2574 409.151 87.4734 409.583 87.7614C409.935 87.9854 410.207 88.0974 410.399 88.0974C410.543 88.0974 410.655 88.0174 410.735 87.8574C410.815 87.6814 410.879 87.4094 410.927 87.0414H411.479C411.399 87.9694 411.359 89.6014 411.359 91.9374H410.807C410.711 90.6414 410.335 89.5534 409.679 88.6734C409.039 87.7774 408.103 87.3294 406.871 87.3294C406.007 87.3294 405.303 87.5934 404.759 88.1214C404.215 88.6334 403.943 89.2974 403.943 90.1134C403.943 90.7214 404.079 91.2494 404.351 91.6974C404.639 92.1454 404.999 92.5294 405.431 92.8494C405.863 93.1694 406.479 93.5774 407.279 94.0734L407.975 94.5054C408.983 95.1294 409.775 95.6814 410.351 96.1614C410.943 96.6254 411.415 97.1614 411.767 97.7694C412.119 98.3774 412.295 99.0894 412.295 99.9054C412.295 101.361 411.815 102.489 410.855 103.289C409.895 104.073 408.679 104.465 407.207 104.465C406.439 104.465 405.807 104.385 405.311 104.225C404.831 104.065 404.367 103.849 403.919 103.577C403.567 103.353 403.295 103.241 403.103 103.241C402.959 103.241 402.847 103.329 402.767 103.505C402.687 103.665 402.623 103.929 402.575 104.297H402.023C402.087 103.417 402.119 101.497 402.119 98.5374H402.671C402.783 100.153 403.183 101.465 403.871 102.473C404.559 103.481 405.615 103.985 407.039 103.985C407.903 103.985 408.639 103.721 409.247 103.193C409.855 102.649 410.159 101.849 410.159 100.793C410.159 99.8974 409.855 99.1374 409.247 98.5134C408.655 97.8894 407.711 97.1854 406.415 96.4014C405.471 95.8254 404.703 95.3134 404.111 94.8654C403.535 94.4174 403.063 93.8814 402.695 93.2574C402.327 92.6174 402.143 91.8734 402.143 91.0254C402.143 89.6814 402.575 88.6574 403.439 87.9534C404.303 87.2334 405.375 86.8734 406.655 86.8734ZM417.384 104.297C416.376 104.297 415.624 104.049 415.128 103.553C414.648 103.041 414.408 102.337 414.408 101.441C414.408 100.721 414.6 100.129 414.984 99.6654C415.384 99.2014 415.848 98.8334 416.376 98.5614C416.92 98.2894 417.632 98.0014 418.512 97.6974C419.408 97.3934 420.072 97.1134 420.504 96.8574C420.936 96.6014 421.152 96.2574 421.152 95.8254V94.3374C421.152 93.4094 420.952 92.7774 420.552 92.4414C420.168 92.0894 419.624 91.9134 418.92 91.9134C417.8 91.9134 417.008 92.2014 416.544 92.7774C416.864 92.8574 417.128 93.0254 417.336 93.2814C417.56 93.5374 417.672 93.8574 417.672 94.2414C417.672 94.6414 417.544 94.9614 417.288 95.2014C417.032 95.4254 416.704 95.5374 416.304 95.5374C415.856 95.5374 415.52 95.4014 415.296 95.1294C415.072 94.8414 414.96 94.4974 414.96 94.0974C414.96 93.7134 415.048 93.3934 415.224 93.1374C415.416 92.8814 415.696 92.6254 416.064 92.3694C416.448 92.0974 416.936 91.8734 417.528 91.6974C418.12 91.5214 418.768 91.4334 419.472 91.4334C420.72 91.4334 421.664 91.7294 422.304 92.3214C422.704 92.6894 422.968 93.1374 423.096 93.6654C423.24 94.1774 423.312 94.8574 423.312 95.7054V102.377C423.312 102.777 423.368 103.065 423.48 103.241C423.592 103.417 423.784 103.505 424.056 103.505C424.248 103.505 424.424 103.465 424.584 103.385C424.76 103.289 424.944 103.161 425.136 103.001L425.4 103.409C424.984 103.729 424.624 103.961 424.32 104.105C424.032 104.233 423.664 104.297 423.216 104.297C422.448 104.297 421.912 104.105 421.608 103.721C421.304 103.337 421.152 102.817 421.152 102.161C420.672 102.961 420.12 103.521 419.496 103.841C418.872 104.145 418.168 104.297 417.384 104.297ZM418.44 103.337C419.496 103.337 420.4 102.729 421.152 101.513V96.8094C421.008 97.0334 420.808 97.2174 420.552 97.3614C420.296 97.5054 419.904 97.6974 419.376 97.9374C418.768 98.1934 418.272 98.4414 417.888 98.6814C417.52 98.9054 417.2 99.2174 416.928 99.6174C416.656 100.017 416.52 100.529 416.52 101.153C416.52 101.873 416.696 102.417 417.048 102.785C417.4 103.153 417.864 103.337 418.44 103.337ZM429.937 101.897C429.937 102.553 430.073 103.009 430.345 103.265C430.617 103.505 431.089 103.625 431.761 103.625V104.129C430.289 104.065 429.321 104.033 428.857 104.033C428.393 104.033 427.425 104.065 425.953 104.129V103.625C426.625 103.625 427.097 103.505 427.369 103.265C427.641 103.009 427.777 102.553 427.777 101.897V88.1934C427.777 87.4574 427.641 86.9214 427.369 86.5854C427.097 86.2494 426.625 86.0814 425.953 86.0814V85.5774C426.449 85.6254 426.945 85.6494 427.441 85.6494C428.449 85.6494 429.281 85.5374 429.937 85.3134V101.897ZM443.17 101.249C442.882 102.129 442.338 102.889 441.538 103.529C440.754 104.153 439.802 104.465 438.682 104.465C437.546 104.465 436.562 104.209 435.73 103.697C434.898 103.169 434.258 102.441 433.81 101.513C433.378 100.569 433.162 99.4814 433.162 98.2494C433.162 96.8574 433.386 95.6494 433.834 94.6254C434.282 93.6014 434.914 92.8174 435.73 92.2734C436.546 91.7134 437.498 91.4334 438.586 91.4334C440.026 91.4334 441.13 91.8734 441.898 92.7534C442.682 93.6174 443.074 94.9374 443.074 96.7134H435.562C435.514 97.1614 435.49 97.6734 435.49 98.2494C435.49 99.3054 435.658 100.225 435.994 101.009C436.346 101.793 436.802 102.401 437.362 102.833C437.938 103.249 438.538 103.457 439.162 103.457C439.93 103.457 440.61 103.273 441.202 102.905C441.794 102.537 442.29 101.921 442.69 101.057L443.17 101.249ZM438.49 91.8894C437.738 91.8894 437.09 92.2574 436.546 92.9934C436.002 93.7294 435.666 94.8174 435.538 96.2574H440.77C440.802 95.0094 440.618 93.9694 440.218 93.1374C439.834 92.3054 439.258 91.8894 438.49 91.8894Z" fill="#233A75"/>
<path d="M489.086 176.135C489.79 176.135 490.342 176.215 490.742 176.375C491.158 176.519 491.582 176.735 492.014 177.023C492.366 177.247 492.638 177.359 492.83 177.359C492.974 177.359 493.086 177.279 493.166 177.119C493.246 176.943 493.31 176.671 493.358 176.303H493.91C493.83 177.231 493.79 178.863 493.79 181.199H493.238C493.142 179.903 492.766 178.815 492.11 177.935C491.47 177.039 490.534 176.591 489.302 176.591C488.438 176.591 487.734 176.855 487.19 177.383C486.646 177.895 486.374 178.559 486.374 179.375C486.374 179.983 486.51 180.511 486.782 180.959C487.07 181.407 487.43 181.791 487.862 182.111C488.294 182.431 488.91 182.839 489.71 183.335L490.406 183.767C491.414 184.391 492.206 184.943 492.782 185.423C493.374 185.887 493.846 186.423 494.198 187.031C494.55 187.639 494.726 188.351 494.726 189.167C494.726 190.623 494.246 191.751 493.286 192.551C492.326 193.335 491.11 193.727 489.638 193.727C488.87 193.727 488.238 193.647 487.742 193.487C487.262 193.327 486.798 193.111 486.35 192.839C485.998 192.615 485.726 192.503 485.534 192.503C485.39 192.503 485.278 192.591 485.198 192.767C485.118 192.927 485.054 193.191 485.006 193.559H484.454C484.518 192.679 484.55 190.759 484.55 187.799H485.102C485.214 189.415 485.614 190.727 486.302 191.735C486.99 192.743 488.046 193.247 489.47 193.247C490.334 193.247 491.07 192.983 491.678 192.455C492.286 191.911 492.59 191.111 492.59 190.055C492.59 189.159 492.286 188.399 491.678 187.775C491.086 187.151 490.142 186.447 488.846 185.663C487.902 185.087 487.134 184.575 486.542 184.127C485.966 183.679 485.494 183.143 485.126 182.519C484.758 181.879 484.574 181.135 484.574 180.287C484.574 178.943 485.006 177.919 485.87 177.215C486.734 176.495 487.806 176.135 489.086 176.135ZM499.815 193.559C498.807 193.559 498.055 193.311 497.559 192.815C497.079 192.303 496.839 191.599 496.839 190.703C496.839 189.983 497.031 189.391 497.415 188.927C497.815 188.463 498.279 188.095 498.807 187.823C499.351 187.551 500.063 187.263 500.943 186.959C501.839 186.655 502.503 186.375 502.935 186.119C503.367 185.863 503.583 185.519 503.583 185.087V183.599C503.583 182.671 503.383 182.039 502.983 181.703C502.599 181.351 502.055 181.175 501.351 181.175C500.231 181.175 499.439 181.463 498.975 182.039C499.295 182.119 499.559 182.287 499.767 182.543C499.991 182.799 500.103 183.119 500.103 183.503C500.103 183.903 499.975 184.223 499.719 184.463C499.463 184.687 499.135 184.799 498.735 184.799C498.287 184.799 497.951 184.663 497.727 184.391C497.503 184.103 497.391 183.759 497.391 183.359C497.391 182.975 497.479 182.655 497.655 182.399C497.847 182.143 498.127 181.887 498.495 181.631C498.879 181.359 499.367 181.135 499.959 180.959C500.551 180.783 501.199 180.695 501.903 180.695C503.151 180.695 504.095 180.991 504.735 181.583C505.135 181.951 505.399 182.399 505.527 182.927C505.671 183.439 505.743 184.119 505.743 184.967V191.639C505.743 192.039 505.799 192.327 505.911 192.503C506.023 192.679 506.215 192.767 506.487 192.767C506.679 192.767 506.855 192.727 507.015 192.647C507.191 192.551 507.375 192.423 507.567 192.263L507.831 192.671C507.415 192.991 507.055 193.223 506.751 193.367C506.463 193.495 506.095 193.559 505.647 193.559C504.879 193.559 504.343 193.367 504.039 192.983C503.735 192.599 503.583 192.079 503.583 191.423C503.103 192.223 502.551 192.783 501.927 193.103C501.303 193.407 500.599 193.559 499.815 193.559ZM500.871 192.599C501.927 192.599 502.831 191.991 503.583 190.775V186.071C503.439 186.295 503.239 186.479 502.983 186.623C502.727 186.767 502.335 186.959 501.807 187.199C501.199 187.455 500.703 187.703 500.319 187.943C499.951 188.167 499.631 188.479 499.359 188.879C499.087 189.279 498.951 189.791 498.951 190.415C498.951 191.135 499.127 191.679 499.479 192.047C499.831 192.415 500.295 192.599 500.871 192.599ZM512.368 191.159C512.368 191.815 512.504 192.271 512.776 192.527C513.048 192.767 513.52 192.887 514.192 192.887V193.391C512.72 193.327 511.752 193.295 511.288 193.295C510.824 193.295 509.856 193.327 508.384 193.391V192.887C509.056 192.887 509.528 192.767 509.8 192.527C510.072 192.271 510.208 191.815 510.208 191.159V177.455C510.208 176.719 510.072 176.183 509.8 175.847C509.528 175.511 509.056 175.343 508.384 175.343V174.839C508.88 174.887 509.376 174.911 509.872 174.911C510.88 174.911 511.712 174.799 512.368 174.575V191.159ZM525.601 190.511C525.313 191.391 524.769 192.151 523.969 192.791C523.185 193.415 522.233 193.727 521.113 193.727C519.977 193.727 518.993 193.471 518.161 192.959C517.329 192.431 516.689 191.703 516.241 190.775C515.809 189.831 515.593 188.743 515.593 187.511C515.593 186.119 515.817 184.911 516.265 183.887C516.713 182.863 517.345 182.079 518.161 181.535C518.977 180.975 519.929 180.695 521.017 180.695C522.457 180.695 523.561 181.135 524.329 182.015C525.113 182.879 525.505 184.199 525.505 185.975H517.993C517.945 186.423 517.921 186.935 517.921 187.511C517.921 188.567 518.089 189.487 518.425 190.271C518.777 191.055 519.233 191.663 519.793 192.095C520.369 192.511 520.969 192.719 521.593 192.719C522.361 192.719 523.041 192.535 523.633 192.167C524.225 191.799 524.721 191.183 525.121 190.319L525.601 190.511ZM520.921 181.151C520.169 181.151 519.521 181.519 518.977 182.255C518.433 182.991 518.097 184.079 517.969 185.519H523.201C523.233 184.271 523.049 183.231 522.649 182.399C522.265 181.567 521.689 181.151 520.921 181.151ZM539.302 180.695C540.374 180.695 541.302 180.951 542.086 181.463C542.838 181.959 543.214 182.575 543.214 183.311C543.214 183.727 543.094 184.055 542.854 184.295C542.614 184.535 542.31 184.655 541.942 184.655C541.574 184.655 541.262 184.551 541.006 184.343C540.75 184.119 540.622 183.823 540.622 183.455C540.622 183.119 540.718 182.839 540.91 182.615C541.102 182.375 541.342 182.215 541.63 182.135C541.47 181.847 541.182 181.607 540.766 181.415C540.366 181.223 539.934 181.127 539.47 181.127C538.878 181.127 538.326 181.319 537.814 181.703C537.302 182.071 536.878 182.695 536.542 183.575C536.206 184.439 536.038 185.583 536.038 187.007C536.038 188.991 536.358 190.439 536.998 191.351C537.638 192.247 538.47 192.695 539.494 192.695C540.182 192.695 540.83 192.495 541.438 192.095C542.062 191.695 542.574 191.071 542.974 190.223L543.43 190.391C543.158 191.303 542.646 192.087 541.894 192.743C541.158 193.399 540.198 193.727 539.014 193.727C538.022 193.727 537.118 193.471 536.302 192.959C535.502 192.447 534.87 191.711 534.406 190.751C533.942 189.775 533.71 188.647 533.71 187.367C533.71 186.071 533.942 184.919 534.406 183.911C534.886 182.903 535.55 182.119 536.398 181.559C537.246 180.983 538.214 180.695 539.302 180.695ZM548.79 191.159C548.79 191.815 548.926 192.271 549.198 192.527C549.47 192.767 549.942 192.887 550.614 192.887V193.391C549.142 193.327 548.174 193.295 547.71 193.295C547.246 193.295 546.278 193.327 544.806 193.391V192.887C545.478 192.887 545.95 192.767 546.222 192.527C546.494 192.271 546.63 191.815 546.63 191.159V177.455C546.63 176.719 546.494 176.183 546.222 175.847C545.95 175.511 545.478 175.343 544.806 175.343V174.839C545.302 174.887 545.798 174.911 546.294 174.911C547.302 174.911 548.134 174.799 548.79 174.575V191.159ZM557.487 180.695C559.119 180.695 560.431 181.239 561.423 182.327C562.431 183.399 562.935 185.031 562.935 187.223C562.935 189.415 562.431 191.047 561.423 192.119C560.431 193.191 559.119 193.727 557.487 193.727C555.855 193.727 554.535 193.191 553.527 192.119C552.535 191.047 552.039 189.415 552.039 187.223C552.039 185.031 552.535 183.399 553.527 182.327C554.535 181.239 555.855 180.695 557.487 180.695ZM557.487 181.175C556.527 181.175 555.767 181.671 555.207 182.663C554.647 183.639 554.367 185.159 554.367 187.223C554.367 189.287 554.647 190.807 555.207 191.783C555.767 192.759 556.527 193.247 557.487 193.247C558.447 193.247 559.207 192.759 559.767 191.783C560.327 190.807 560.607 189.287 560.607 187.223C560.607 185.159 560.327 183.639 559.767 182.663C559.207 181.671 558.447 181.175 557.487 181.175ZM569.052 180.695C569.628 180.695 570.14 180.783 570.588 180.959C571.036 181.135 571.396 181.343 571.668 181.583C571.844 181.711 571.988 181.775 572.1 181.775C572.388 181.775 572.564 181.423 572.628 180.719H573.18C573.116 181.503 573.084 182.863 573.084 184.799H572.532C572.356 183.743 572.012 182.871 571.5 182.183C571.004 181.495 570.26 181.151 569.268 181.151C568.692 181.151 568.22 181.319 567.852 181.655C567.484 181.975 567.3 182.423 567.3 182.999C567.3 183.559 567.492 184.031 567.876 184.415C568.26 184.783 568.876 185.231 569.724 185.759C569.868 185.839 570.084 185.975 570.372 186.167C571.108 186.647 571.7 187.071 572.148 187.439C572.596 187.807 572.956 188.231 573.228 188.711C573.516 189.191 573.66 189.743 573.66 190.367C573.66 191.423 573.26 192.247 572.46 192.839C571.676 193.431 570.708 193.727 569.556 193.727C568.836 193.727 568.204 193.615 567.66 193.391C567.308 193.215 566.98 192.999 566.676 192.743C566.612 192.679 566.54 192.647 566.46 192.647C566.348 192.647 566.244 192.727 566.148 192.887C566.068 193.047 566.004 193.271 565.956 193.559H565.404C565.468 192.647 565.5 191.047 565.5 188.759H566.052C566.228 190.263 566.548 191.391 567.012 192.143C567.476 192.879 568.268 193.247 569.388 193.247C569.948 193.247 570.444 193.063 570.876 192.695C571.308 192.327 571.524 191.751 571.524 190.967C571.524 190.343 571.308 189.815 570.876 189.383C570.46 188.951 569.772 188.431 568.812 187.823C568.028 187.327 567.42 186.919 566.988 186.599C566.572 186.279 566.22 185.887 565.932 185.423C565.644 184.959 565.5 184.415 565.5 183.791C565.5 182.783 565.836 182.015 566.508 181.487C567.18 180.959 568.028 180.695 569.052 180.695ZM585.906 190.511C585.618 191.391 585.074 192.151 584.274 192.791C583.49 193.415 582.538 193.727 581.418 193.727C580.282 193.727 579.298 193.471 578.466 192.959C577.634 192.431 576.994 191.703 576.546 190.775C576.114 189.831 575.898 188.743 575.898 187.511C575.898 186.119 576.122 184.911 576.57 183.887C577.018 182.863 577.65 182.079 578.466 181.535C579.282 180.975 580.234 180.695 581.322 180.695C582.762 180.695 583.866 181.135 584.634 182.015C585.418 182.879 585.81 184.199 585.81 185.975H578.298C578.25 186.423 578.226 186.935 578.226 187.511C578.226 188.567 578.394 189.487 578.73 190.271C579.082 191.055 579.538 191.663 580.098 192.095C580.674 192.511 581.274 192.719 581.898 192.719C582.666 192.719 583.346 192.535 583.938 192.167C584.53 191.799 585.026 191.183 585.426 190.319L585.906 190.511ZM581.226 181.151C580.474 181.151 579.826 181.519 579.282 182.255C578.738 182.991 578.402 184.079 578.274 185.519H583.506C583.538 184.271 583.354 183.231 582.954 182.399C582.57 181.567 581.994 181.151 581.226 181.151ZM598.551 190.775C598.551 191.511 598.687 192.047 598.959 192.383C599.231 192.719 599.703 192.887 600.375 192.887V193.391C599.879 193.343 599.383 193.319 598.887 193.319C597.879 193.319 597.047 193.431 596.391 193.655V191.519C596.103 192.239 595.671 192.791 595.095 193.175C594.519 193.543 593.815 193.727 592.983 193.727C591.447 193.727 590.239 193.175 589.359 192.071C588.495 190.967 588.071 189.351 588.087 187.223C588.087 185.831 588.327 184.647 588.807 183.671C589.303 182.679 589.959 181.935 590.775 181.439C591.607 180.943 592.519 180.695 593.511 180.695C594.119 180.695 594.671 180.815 595.167 181.055C595.679 181.279 596.087 181.631 596.391 182.111V177.455C596.391 176.719 596.255 176.183 595.983 175.847C595.711 175.511 595.239 175.343 594.567 175.343V174.839C595.079 174.887 595.575 174.911 596.055 174.911C597.063 174.911 597.895 174.799 598.551 174.575V190.775ZM593.679 193.007C594.303 193.007 594.863 192.767 595.359 192.287C595.855 191.807 596.199 191.127 596.391 190.247V183.095C595.959 181.863 595.063 181.247 593.703 181.247C592.711 181.247 591.911 181.759 591.303 182.783C590.695 183.791 590.399 185.271 590.415 187.223C590.399 189.143 590.671 190.591 591.231 191.567C591.791 192.527 592.607 193.007 593.679 193.007Z" fill="#233A75"/>
<path d="M676.239 96.8172C677.359 96.8172 678.239 97.0812 678.879 97.6092C679.519 98.1372 679.839 98.8812 679.839 99.8412C679.839 100.497 679.663 101.137 679.311 101.761C678.975 102.369 678.559 102.929 678.063 103.441C677.583 103.953 676.943 104.569 676.143 105.289C675.487 105.897 674.999 106.361 674.679 106.681C674.359 106.985 674.071 107.313 673.815 107.665H678.687C679.119 107.665 679.439 107.633 679.647 107.569C679.871 107.489 680.023 107.369 680.103 107.209C680.183 107.033 680.247 106.777 680.295 106.441H680.703C680.703 107.913 680.735 108.977 680.799 109.633C680.447 109.553 679.255 109.513 677.223 109.513H671.607V109.105C671.879 108.817 672.343 108.361 672.999 107.737C673.911 106.889 674.671 106.129 675.279 105.457C675.887 104.769 676.407 103.993 676.839 103.129C677.287 102.265 677.511 101.345 677.511 100.369C677.511 98.6412 676.711 97.7772 675.111 97.7772C673.799 97.7772 672.727 98.5292 671.895 100.033L671.511 99.8172C671.927 98.9532 672.519 98.2412 673.287 97.6812C674.055 97.1052 675.039 96.8172 676.239 96.8172ZM689.187 96.8172C690.307 96.8172 691.307 97.0812 692.187 97.6092C693.067 98.1212 693.755 98.8572 694.251 99.8172C694.747 100.777 694.995 101.881 694.995 103.129C694.995 104.409 694.739 105.561 694.227 106.585C693.715 107.593 692.995 108.393 692.067 108.985C691.155 109.561 690.107 109.849 688.923 109.849C687.819 109.849 686.827 109.593 685.947 109.081C685.067 108.553 684.371 107.809 683.859 106.849C683.363 105.889 683.115 104.777 683.115 103.513C683.115 102.249 683.363 101.113 683.859 100.105C684.371 99.0812 685.083 98.2812 685.995 97.7052C686.923 97.1132 687.987 96.8172 689.187 96.8172ZM688.971 97.2492C688.283 97.2492 687.667 97.4972 687.123 97.9932C686.595 98.4732 686.179 99.1852 685.875 100.129C685.587 101.057 685.443 102.161 685.443 103.441C685.443 105.473 685.787 106.977 686.475 107.953C687.163 108.929 688.051 109.417 689.139 109.417C689.827 109.417 690.435 109.169 690.963 108.673C691.507 108.177 691.923 107.465 692.211 106.537C692.515 105.593 692.667 104.481 692.667 103.201C692.667 101.185 692.323 99.6892 691.635 98.7132C690.947 97.7372 690.059 97.2492 688.971 97.2492ZM702.33 107.041C702.33 107.793 702.498 108.313 702.834 108.601C703.186 108.873 703.786 109.009 704.634 109.009V109.513C702.906 109.449 701.802 109.417 701.322 109.417C700.874 109.417 699.834 109.441 698.202 109.489L697.626 109.513V109.009C698.474 109.009 699.106 108.865 699.522 108.577C699.954 108.289 700.17 107.777 700.17 107.041V101.233C700.17 100.465 700.09 99.9052 699.93 99.5532C699.77 99.1852 699.498 98.9452 699.114 98.8332C698.746 98.7052 698.17 98.6412 697.386 98.6412V98.1132C698.554 98.0812 699.514 97.9772 700.266 97.8012C701.034 97.6252 701.722 97.3212 702.33 96.8892V107.041ZM712.485 99.8892C713.381 100.545 714.077 101.097 714.573 101.545C715.069 101.977 715.493 102.505 715.845 103.129C716.213 103.753 716.397 104.465 716.397 105.265C716.397 106.161 716.173 106.961 715.725 107.665C715.277 108.353 714.661 108.889 713.877 109.273C713.093 109.657 712.205 109.849 711.213 109.849C709.853 109.849 708.709 109.505 707.781 108.817C706.853 108.113 706.389 107.113 706.389 105.817C706.389 104.713 706.741 103.729 707.445 102.865C708.149 102.001 709.077 101.281 710.229 100.705C709.253 99.9052 708.501 99.1452 707.973 98.4252C707.445 97.7052 707.181 96.8732 707.181 95.9292C707.181 95.1932 707.373 94.5452 707.757 93.9852C708.141 93.4092 708.669 92.9692 709.341 92.6652C710.013 92.3452 710.757 92.1852 711.573 92.1852C712.709 92.1852 713.653 92.4732 714.405 93.0492C715.157 93.6252 715.533 94.4332 715.533 95.4732C715.533 96.3372 715.269 97.1292 714.741 97.8492C714.213 98.5692 713.461 99.2492 712.485 99.8892ZM711.309 92.6172C710.653 92.6172 710.109 92.8492 709.677 93.3132C709.261 93.7772 709.053 94.4012 709.053 95.1852C709.053 96.0972 709.309 96.8812 709.821 97.5372C710.349 98.1772 711.117 98.8732 712.125 99.6252C713.117 98.6812 713.613 97.4012 713.613 95.7852C713.613 94.8252 713.413 94.0572 713.013 93.4812C712.613 92.9052 712.045 92.6172 711.309 92.6172ZM711.357 109.417C712.205 109.417 712.917 109.137 713.493 108.577C714.069 108.017 714.357 107.249 714.357 106.273C714.357 105.521 714.181 104.849 713.829 104.257C713.493 103.649 713.085 103.129 712.605 102.697C712.141 102.265 711.469 101.697 710.589 100.993C709.197 102.001 708.501 103.489 708.501 105.457C708.501 106.593 708.733 107.537 709.197 108.289C709.661 109.041 710.381 109.417 711.357 109.417Z" fill="#233A75"/>
<path d="M831.795 182.723C832.915 182.723 833.795 182.987 834.435 183.515C835.075 184.043 835.395 184.787 835.395 185.747C835.395 186.403 835.219 187.043 834.867 187.667C834.531 188.275 834.115 188.835 833.619 189.347C833.139 189.859 832.499 190.475 831.699 191.195C831.043 191.803 830.555 192.267 830.235 192.587C829.915 192.891 829.627 193.219 829.371 193.571H834.243C834.675 193.571 834.995 193.539 835.203 193.475C835.427 193.395 835.579 193.275 835.659 193.115C835.739 192.939 835.803 192.683 835.851 192.347H836.259C836.259 193.819 836.291 194.883 836.355 195.539C836.003 195.459 834.811 195.419 832.779 195.419H827.163V195.011C827.435 194.723 827.899 194.267 828.555 193.643C829.467 192.795 830.227 192.035 830.835 191.363C831.443 190.675 831.963 189.899 832.395 189.035C832.843 188.171 833.067 187.251 833.067 186.275C833.067 184.547 832.267 183.683 830.667 183.683C829.355 183.683 828.283 184.435 827.451 185.939L827.067 185.723C827.483 184.859 828.075 184.147 828.843 183.587C829.611 183.011 830.595 182.723 831.795 182.723ZM844.744 182.723C845.864 182.723 846.864 182.987 847.744 183.515C848.624 184.027 849.312 184.763 849.808 185.723C850.304 186.683 850.552 187.787 850.552 189.035C850.552 190.315 850.296 191.467 849.784 192.491C849.272 193.499 848.552 194.299 847.624 194.891C846.712 195.467 845.664 195.755 844.48 195.755C843.376 195.755 842.384 195.499 841.504 194.987C840.624 194.459 839.928 193.715 839.416 192.755C838.92 191.795 838.672 190.683 838.672 189.419C838.672 188.155 838.92 187.019 839.416 186.011C839.928 184.987 840.64 184.187 841.552 183.611C842.48 183.019 843.544 182.723 844.744 182.723ZM844.528 183.155C843.84 183.155 843.224 183.403 842.68 183.899C842.152 184.379 841.736 185.091 841.432 186.035C841.144 186.963 841 188.067 841 189.347C841 191.379 841.344 192.883 842.032 193.859C842.72 194.835 843.608 195.323 844.696 195.323C845.384 195.323 845.992 195.075 846.52 194.579C847.064 194.083 847.48 193.371 847.768 192.443C848.072 191.499 848.224 190.387 848.224 189.107C848.224 187.091 847.88 185.595 847.192 184.619C846.504 183.643 845.616 183.155 844.528 183.155ZM857.886 192.947C857.886 193.699 858.054 194.219 858.39 194.507C858.742 194.779 859.342 194.915 860.19 194.915V195.419C858.462 195.355 857.358 195.323 856.878 195.323C856.43 195.323 855.39 195.347 853.758 195.395L853.182 195.419V194.915C854.03 194.915 854.662 194.771 855.078 194.483C855.51 194.195 855.726 193.683 855.726 192.947V187.139C855.726 186.371 855.646 185.811 855.486 185.459C855.326 185.091 855.054 184.851 854.67 184.739C854.302 184.611 853.726 184.547 852.942 184.547V184.019C854.11 183.987 855.07 183.883 855.822 183.707C856.59 183.531 857.278 183.227 857.886 182.795V192.947ZM866.865 182.723C868.401 182.723 869.601 183.283 870.465 184.403C871.329 185.507 871.761 187.059 871.761 189.059C871.761 191.091 871.329 192.819 870.465 194.243C869.617 195.667 868.569 196.755 867.321 197.507C866.089 198.275 864.857 198.763 863.625 198.971L863.529 198.491C864.985 198.075 866.217 197.387 867.225 196.427C868.233 195.467 868.905 193.923 869.241 191.795C868.873 192.419 868.377 192.875 867.753 193.163C867.129 193.435 866.513 193.571 865.905 193.571C865.137 193.571 864.425 193.363 863.769 192.947C863.113 192.531 862.585 191.931 862.185 191.147C861.785 190.347 861.585 189.411 861.585 188.339C861.585 187.171 861.817 186.163 862.281 185.315C862.761 184.467 863.401 183.827 864.201 183.395C865.001 182.947 865.889 182.723 866.865 182.723ZM866.505 192.875C867.049 192.875 867.585 192.723 868.113 192.419C868.657 192.115 869.065 191.627 869.337 190.955C869.401 190.443 869.433 189.827 869.433 189.107C869.433 186.979 869.161 185.467 868.617 184.571C868.073 183.659 867.409 183.203 866.625 183.203C865.841 183.203 865.193 183.611 864.681 184.427C864.169 185.243 863.913 186.491 863.913 188.171C863.913 189.803 864.153 190.995 864.633 191.747C865.113 192.499 865.737 192.875 866.505 192.875Z" fill="#233A75"/>
</g>
<defs>
<linearGradient id="paint0_linear" x1="467.539" y1="0.306152" x2="467.539" y2="286.092" gradientUnits="userSpaceOnUse">
<stop offset="0.265193" stop-color="#FF5050"/>
<stop offset="1" stop-color="#FB54AD"/>
</linearGradient>
<clipPath id="clip0">
<rect width="934.237" height="285.786" fill="white" transform="translate(0.420898 0.306152)"/>
</clipPath>
</defs>
</svg>
