<svg width="50" height="98" viewBox="0 0 50 98" fill="none" xmlns="http://www.w3.org/2000/svg">
<path fill-rule="evenodd" clip-rule="evenodd" d="M17.503 7.27303C17.503 3.26272 20.7728 0 24.7919 0C28.8109 0 32.0807 3.26272 32.0807 7.27303C32.0807 11.2833 28.8109 14.5461 24.7919 14.5461C20.7728 14.5461 17.503 11.2833 17.503 7.27303ZM39.4453 64.3096H42.4384C45.6113 64.3096 48.1927 66.8855 48.1927 70.0521C48.1927 72.9261 46.0657 75.3132 43.3002 75.7295L38.2933 96.5291C38.0861 97.3897 37.3148 97.9962 36.4281 97.9962H13.1549C12.2681 97.9962 11.4969 97.3897 11.2897 96.5291L6.28282 75.7295C3.51727 75.3132 1.39026 72.9259 1.39026 70.0521C1.39026 66.886 3.97167 64.3102 7.14464 64.3102H10.3356C9.68711 63.8153 9.06698 63.2761 8.48176 62.6922C4.17212 58.3919 2.24133 52.2431 3.31702 46.2443C3.45838 45.4556 4.07698 44.8383 4.86725 44.6972C10.8788 43.6235 17.041 45.5503 21.351 49.8508C21.8973 50.3957 22.4049 50.9706 22.8735 51.5711V46.2162L5.25989 33.6144C4.75753 33.255 4.45945 32.6758 4.45945 32.059V18.363C3.51286 18.064 2.62227 17.5425 1.87305 16.7949C-0.62435 14.3027 -0.62435 10.2478 1.87305 7.75581C4.37045 5.26402 8.434 5.26383 10.9316 7.75581C13.429 10.2478 13.429 14.3025 10.9316 16.7947C10.1693 17.5553 9.26071 18.0826 8.2957 18.3789V31.0761L22.8735 41.5059V25.8367C22.8735 24.7796 23.7322 23.9227 24.7916 23.9227C25.851 23.9227 26.7097 24.7796 26.7097 25.8367V34.034L41.4099 23.5167V18.3787C40.4448 18.0822 39.5362 17.5551 38.774 16.7945C36.2766 14.3023 36.2766 10.2474 38.774 7.75543C41.2716 5.26345 45.3351 5.26364 47.8325 7.75543C49.0423 8.96257 49.7086 10.5676 49.7086 12.2749C49.7086 13.9819 49.0423 15.587 47.8325 16.7943C47.0833 17.5417 46.1927 18.0633 45.2461 18.3624V24.4992C45.2461 25.116 44.948 25.6952 44.4457 26.0547L26.7097 38.7439V51.8314C27.2324 51.1366 27.8053 50.4734 28.4299 49.8502C32.7399 45.5499 38.9021 43.6233 44.9137 44.6967C45.704 44.8377 46.3226 45.455 46.4639 46.2435C47.5396 52.2423 45.609 58.3911 41.2992 62.6916C40.714 63.2755 40.0938 63.8147 39.4453 64.3096ZM43.3029 9.71217C42.6452 9.71217 41.9873 9.96214 41.4864 10.4619C40.4848 11.4613 40.4848 13.0877 41.4864 14.0873C42.4883 15.087 44.1179 15.087 45.1195 14.0873C45.6048 13.6031 45.872 12.9594 45.872 12.2746C45.872 11.5898 45.6048 10.9461 45.1195 10.4619C44.6187 9.96214 43.9608 9.71217 43.3029 9.71217ZM4.58597 14.0872C3.58414 13.0877 3.58414 11.4614 4.58597 10.4619C5.08679 9.96214 5.7447 9.71217 6.40261 9.71217C7.06053 9.71217 7.71825 9.96214 8.21906 10.4619C9.2207 11.4614 9.2207 13.0877 8.21906 14.0872C7.21743 15.0869 5.5878 15.0869 4.58597 14.0872ZM42.8676 48.2851C38.5394 47.921 34.2388 49.4673 31.1427 52.5569C28.7027 54.9916 27.2238 58.1732 26.8849 61.5262L31.6859 56.7356C32.4351 55.9882 33.6497 55.9882 34.3987 56.7356C35.1478 57.4832 35.1478 58.6951 34.3987 59.4425L29.5975 64.2333C32.958 63.8953 36.1465 62.4195 38.5866 59.9845C41.6826 56.8952 43.2326 52.6039 42.8676 48.2851ZM6.91358 48.2852C11.2413 47.9207 15.5427 49.4678 18.6385 52.5569C21.0341 54.9473 22.5032 58.0575 22.8766 61.343L18.2591 56.7355C17.5101 55.9881 16.2955 55.9881 15.5463 56.7355C14.7973 57.4829 14.7973 58.6948 15.5463 59.4424L20.3643 64.2499C16.9373 63.9473 13.6784 62.463 11.1947 59.9846C8.09879 56.8953 6.54875 52.604 6.91358 48.2852ZM32.7521 71.9661H42.4386C43.4963 71.9661 44.3568 71.1075 44.3568 70.0521C44.3568 68.9968 43.4963 68.1382 42.4386 68.1382H7.14505C6.0874 68.1382 5.22692 68.9968 5.22692 70.0521C5.22692 71.1075 6.0874 71.9661 7.14505 71.9661H16.9275C17.9869 71.9661 18.8456 72.823 18.8456 73.8801C18.8456 74.9371 17.9869 75.794 16.9275 75.794H10.2442L14.6672 94.1681H34.9165L39.3395 75.794H32.7521C31.6927 75.794 30.8339 74.9371 30.8339 73.8801C30.8339 72.823 31.6927 71.9661 32.7521 71.9661ZM26.2474 72.5263C25.8887 72.1703 25.3958 71.9655 24.8913 71.9655C24.3849 71.9655 23.8919 72.1703 23.5332 72.5263C23.1764 72.8822 22.9731 73.3761 22.9731 73.8794C22.9731 74.3828 23.1764 74.8766 23.5332 75.2326C23.8919 75.5886 24.3849 75.7934 24.8913 75.7934C25.3958 75.7934 25.8887 75.5886 26.2474 75.2326C26.6042 74.8766 26.8075 74.3828 26.8075 73.8794C26.8075 73.3761 26.6042 72.8822 26.2474 72.5263ZM24.7919 10.7184C22.8881 10.7184 21.3392 9.17291 21.3392 7.27328C21.3392 5.37366 22.8881 3.82813 24.7919 3.82813C26.6956 3.82813 28.2445 5.37366 28.2445 7.27328C28.2445 9.17291 26.6956 10.7184 24.7919 10.7184ZM24.7919 17.4868C25.2963 17.4868 25.7912 17.6916 26.148 18.0476C26.5048 18.4037 26.71 18.8975 26.71 19.4009C26.71 19.9042 26.5048 20.3981 26.148 20.7541C25.7912 21.1101 25.2963 21.3149 24.7919 21.3149C24.2874 21.3149 23.7925 21.1101 23.4357 20.7541C23.079 20.3981 22.8737 19.9042 22.8737 19.4009C22.8737 18.8975 23.079 18.4037 23.4357 18.0476C23.7925 17.6916 24.2874 17.4868 24.7919 17.4868Z" fill="#F94040"/>
</svg>
