<svg width="99" height="99" viewBox="0 0 99 99" fill="none" xmlns="http://www.w3.org/2000/svg">
<path fill-rule="evenodd" clip-rule="evenodd" d="M67.4846 4.08169C61.6419 1.72233 55.4579 0.525879 49.1041 0.525879C35.9879 0.525879 23.6569 5.63234 14.3823 14.905C5.10778 24.1775 0 36.5059 0 49.6191C0 60.4427 3.60896 71.01 10.1883 79.5558C8.63887 82.0684 8.95056 85.4117 11.1271 87.588C12.3984 88.859 14.0685 89.4943 15.7386 89.4943C17.4087 89.4943 19.0787 88.859 20.3502 87.588C22.8929 85.0457 22.8929 80.9092 20.3502 78.3669C18.3878 76.4051 15.4764 75.9588 13.0805 77.0247C7.10878 69.1812 3.83626 59.5168 3.83626 49.6191C3.83626 24.6638 24.1433 4.36129 49.1041 4.36129C54.9632 4.36129 60.6639 5.46378 66.0475 7.63788C67.0301 8.03465 68.1476 7.56002 68.5445 6.57816C68.9414 5.5961 68.4666 4.47846 67.4846 4.08169ZM13.84 81.0791C13.8444 81.0747 13.8491 81.0707 13.8537 81.0667L13.863 81.0584L13.8661 81.0555L13.8684 81.0538L13.8777 81.0458L13.8835 81.0405L13.8951 81.0296L13.9062 81.0192L13.9147 81.0116C14.4283 80.535 15.0826 80.294 15.7388 80.294C16.4265 80.294 17.1141 80.5555 17.6376 81.0791C18.6847 82.1258 18.6847 83.8293 17.6378 84.876C16.5907 85.9229 14.8872 85.9231 13.84 84.876C12.7931 83.8293 12.7931 82.1258 13.84 81.0791ZM87.0811 11.6504C89.2576 13.8264 89.5693 17.1697 88.0198 19.6823C94.5994 28.2282 98.2082 38.7953 98.2082 49.619C98.2082 62.7322 93.1008 75.0609 83.826 84.3332C74.5513 93.6055 62.2202 98.7121 49.104 98.7121C42.7823 98.7121 36.6278 97.5276 30.811 95.1914C29.828 94.7966 29.3511 93.6799 29.7461 92.6971C30.141 91.7141 31.2582 91.2371 32.241 91.6324C37.601 93.7852 43.2745 94.8767 49.104 94.8767C74.0649 94.8767 94.3719 74.5742 94.3719 49.619C94.3719 39.7215 91.0994 30.0569 85.1277 22.2135C84.2841 22.5888 83.377 22.778 82.4695 22.778C80.7994 22.778 79.1293 22.1425 77.858 20.8715C75.3153 18.3292 75.3153 14.1927 77.858 11.6504C80.4008 9.10828 84.5382 9.10828 87.0811 11.6504ZM84.355 18.1717L84.3549 18.1717L84.3477 18.1781L84.3428 18.1827L84.3399 18.1848C84.318 18.2028 84.2985 18.2228 84.2776 18.2415C83.2254 19.2027 81.5885 19.1774 80.5707 18.1597C79.5236 17.113 79.5236 15.4097 80.5707 14.3628C81.0942 13.8395 81.7818 13.5777 82.4695 13.5777C83.1572 13.5777 83.8448 13.8395 84.3683 14.3628C85.4154 15.4095 85.4154 17.1128 84.3683 18.1597C84.364 18.1639 84.3595 18.1678 84.355 18.1717ZM70.8854 74.3955C71.6862 73.7022 72.8975 73.7885 73.5909 74.589C74.2847 75.3894 74.198 76.6006 73.3974 77.2941C66.7564 83.0472 58.2537 86.2154 49.456 86.2154C46.3396 86.2154 43.2541 85.8238 40.2655 85.0506C39.2109 86.3922 37.5751 87.2565 35.7401 87.2565C32.5671 87.2565 29.9857 84.6757 29.9857 81.5034C29.9857 78.3312 32.5671 75.7503 35.7401 75.7503C38.8789 75.7503 41.4373 78.2763 41.492 81.4016C44.0841 82.049 46.7561 82.38 49.456 82.38C57.3311 82.38 64.9417 79.5445 70.8854 74.3955ZM35.7405 83.4205C34.6828 83.4205 33.8223 82.5602 33.8223 81.5028C33.8223 80.4454 34.6828 79.5851 35.7405 79.5851C36.7981 79.5851 37.6586 80.4454 37.6586 81.5028C37.6586 82.5602 36.7981 83.4205 35.7405 83.4205ZM75.474 69.5198C76.1198 68.681 77.3294 68.5161 78.169 69.1612C79.0083 69.8065 79.1599 71.0178 78.5154 71.8575C78.136 72.3517 77.5609 72.6127 76.9807 72.6127C76.575 72.6127 76.1668 72.4852 75.821 72.2202C74.9804 71.5764 74.8268 70.3654 75.4701 69.5246L75.474 69.5198ZM19.0938 61.9193L19.0842 61.8957C18.6866 60.9136 17.5685 60.4403 16.5865 60.8375C15.6046 61.2348 15.1306 62.3529 15.528 63.3346L15.5376 63.3581C15.8397 64.1043 16.5579 64.5569 17.3163 64.5569C17.5559 64.5569 17.7997 64.5117 18.0354 64.4164C19.0173 64.019 19.4913 62.901 19.0938 61.9193ZM25.7716 19.6655C25.7716 16.4932 28.353 13.9124 31.526 13.9124C34.699 13.9124 37.2804 16.4932 37.2804 19.6655C37.2804 22.8378 34.699 25.4186 31.526 25.4186C30.3995 25.4186 29.3484 25.092 28.4601 24.5305C20.9765 30.7734 16.715 39.8367 16.7152 49.6458C16.7152 51.6935 16.9053 53.7428 17.2805 55.7364C17.4763 56.7773 16.7912 57.7797 15.75 57.9755C15.6301 57.9981 15.5108 58.0091 15.3932 58.0091C14.4888 58.0091 13.6836 57.3666 13.5104 56.4456C13.0913 54.2185 12.879 51.9309 12.879 49.646C12.879 43.8177 14.2101 38.2463 16.8357 33.0864C19.0826 28.6701 22.2613 24.7035 26.081 21.5226C25.8815 20.9396 25.7716 20.3152 25.7716 19.6655ZM31.5261 21.5833C30.4684 21.5833 29.6079 20.7231 29.6079 19.6656C29.6079 18.6082 30.4684 17.7479 31.5261 17.7479C32.5838 17.7479 33.4442 18.6082 33.4442 19.6656C33.4442 20.7231 32.5838 21.5833 31.5261 21.5833ZM77.1177 25.718C81.0467 30.2541 83.8024 35.706 85.124 41.5262C87.6801 42.1115 89.5933 44.4022 89.5933 47.1328C89.5933 50.3051 87.0119 52.8859 83.8389 52.8859C80.6659 52.8859 78.0845 50.3051 78.0845 47.133C78.0845 44.8743 79.3938 42.9163 81.2929 41.9755C78.7543 31.4335 70.9596 22.6525 60.7246 18.9017C59.7299 18.5371 59.2191 17.4354 59.5837 16.4411C59.9483 15.4465 61.0507 14.9364 62.0449 15.3004C67.8432 17.4252 73.0553 21.0276 77.1177 25.718ZM83.8387 49.0504C82.7811 49.0504 81.9206 48.1902 81.9206 47.1327C81.9206 46.0753 82.7811 45.215 83.8387 45.215C84.8964 45.215 85.7568 46.0753 85.7568 47.1327C85.7568 48.1902 84.8964 49.0504 83.8387 49.0504ZM61.1532 28.8806L72.2187 35.2679C72.8122 35.6104 73.1778 36.2434 73.1778 36.9286V49.7032C73.1778 50.3882 72.8122 51.0215 72.2187 51.364L62.1123 57.1976V68.8649C62.1123 69.5499 61.7467 70.1831 61.1532 70.5256L50.0877 76.9131C49.791 77.0846 49.4599 77.1701 49.1287 77.1701C48.7974 77.1701 48.4663 77.0846 48.1696 76.9131L37.1041 70.5256C36.5107 70.1831 36.1451 69.5499 36.1451 68.8649V57.1976L26.0386 51.364C25.4452 51.0215 25.0796 50.3882 25.0796 49.7032V36.9286C25.0796 36.2434 25.4452 35.6104 26.0386 35.2679L37.1041 28.8806C37.6976 28.5381 38.4288 28.5381 39.0223 28.8806L49.1287 34.7143L59.2351 28.8806C59.8286 28.5381 60.5598 28.5381 61.1532 28.8806ZM28.916 48.5965V38.0361H28.9158L38.0632 32.7561L47.2105 38.0361V48.5963L42.6369 51.2364L38.0634 53.8765L28.916 48.5965ZM39.9812 67.7576L49.1285 73.0378L58.2759 67.7576H58.2755V57.1975L53.7019 54.5574L49.1283 51.9173L44.5548 54.5574L39.9812 57.1975V67.7576ZM69.3411 48.5964L60.1937 53.8764L55.6201 51.2363L51.0465 48.5962V38.036L60.1937 32.7561L69.3411 38.0361V48.5964ZM55.2044 13.53C55.5355 13.5687 55.8602 13.692 56.143 13.9093C56.9824 14.5544 57.1339 15.7658 56.4892 16.6056C56.1098 17.0998 55.5347 17.3608 54.9545 17.3608C54.5488 17.3608 54.1406 17.2332 53.7947 16.9682C52.9542 16.3244 52.8005 15.1134 53.4439 14.2727L53.4477 14.2679C53.8762 13.7116 54.5524 13.4536 55.2044 13.53Z" fill="#F94040"/>
</svg>
