<svg width="112" height="113" viewBox="0 0 112 113" fill="none" xmlns="http://www.w3.org/2000/svg">
<path d="M87.7342 32.0167C87.7342 14.3623 73.499 0 56.0009 0C38.5028 0 24.2676 14.3623 24.2676 32.0167C24.2676 41.3298 28.35 50.172 35.2977 56.2269C34.2542 57.2552 33.6009 58.6828 33.6009 60.2667C33.6009 61.7187 34.1628 63.0314 35.0569 64.0333C34.1609 65.0353 33.6009 66.3479 33.6009 67.8C33.6009 69.2521 34.1628 70.5647 35.0569 71.5667C34.1609 72.5686 33.6009 73.8813 33.6009 75.3333C33.6009 77.7854 35.167 79.8571 37.3342 80.6368V94.1667C37.3342 94.6733 37.5396 95.146 37.8849 95.4944L37.8812 95.4982L54.6812 112.448C55.0452 112.815 55.523 113 56.0009 113C56.4788 113 56.9566 112.815 57.3206 112.448L74.1206 95.4982L74.1169 95.4944C74.4622 95.146 74.6676 94.6733 74.6676 94.1667V80.6368C76.8348 79.8571 78.4009 77.7854 78.4009 75.3333C78.4009 73.8813 77.839 72.5686 76.9449 71.5667C77.8409 70.5647 78.4009 69.2521 78.4009 67.8C78.4009 66.3479 77.839 65.0353 76.9449 64.0333C77.8409 63.0314 78.4009 61.7187 78.4009 60.2667C78.4009 58.6828 77.7476 57.2552 76.7041 56.2269C83.6518 50.172 87.7342 41.3298 87.7342 32.0167ZM56.0009 108.454L53.0404 105.467H58.9614L56.0009 108.454ZM62.6948 101.7H49.307L42.1316 94.4586L44.8009 92.6638L49.3649 95.7336C49.9921 96.1555 50.8078 96.1555 51.435 95.7336L56.0009 92.6638L60.5649 95.7336C61.1921 96.1555 62.0078 96.1555 62.635 95.7336L67.2009 92.6638L69.8702 94.4605L62.6948 101.7ZM70.9342 90.6467L68.2369 88.8331C67.6097 88.4112 66.794 88.4112 66.1668 88.8331L61.6009 91.9029L57.0369 88.8331C56.4097 88.4112 55.594 88.4112 54.9668 88.8331L50.4009 91.9029L45.8369 88.8331C45.2097 88.4112 44.394 88.4112 43.7668 88.8331L41.0676 90.6467V80.9833H70.9342V90.6467ZM72.8009 77.2167H39.2009C38.1724 77.2167 37.3342 76.371 37.3342 75.3333C37.3342 74.2956 38.1724 73.45 39.2009 73.45H72.8009C73.8294 73.45 74.6676 74.2956 74.6676 75.3333C74.6676 76.371 73.8294 77.2167 72.8009 77.2167ZM72.8009 69.6833H39.2009C38.1724 69.6833 37.3342 68.8377 37.3342 67.8C37.3342 66.7623 38.1724 65.9167 39.2009 65.9167H72.8009C73.8294 65.9167 74.6676 66.7623 74.6676 67.8C74.6676 68.8377 73.8294 69.6833 72.8009 69.6833ZM72.8009 62.15H39.2009C38.1724 62.15 37.3342 61.3044 37.3342 60.2667C37.3342 59.229 38.1724 58.3833 39.2009 58.3833H72.7934L72.8158 58.3871C73.8369 58.3946 74.6676 59.2327 74.6676 60.2667C74.6676 61.3044 73.8294 62.15 72.8009 62.15ZM50.162 33.6684C50.5036 33.9471 50.9198 34.0865 51.3342 34.0865C51.7486 34.0865 52.1649 33.9471 52.5065 33.6684C54.7278 31.8604 56.0009 29.1973 56.0009 26.3667C56.0009 25.9316 55.9598 25.5022 55.902 25.0766C55.8852 24.9542 55.8628 24.8355 55.8404 24.7131C55.7825 24.3892 55.7078 24.069 55.6145 23.7545C55.5846 23.649 55.5585 23.5436 55.5249 23.44C55.3924 23.0388 55.2374 22.6471 55.0526 22.2685C55.019 22.2007 54.978 22.1367 54.9425 22.067C54.7801 21.7525 54.5972 21.4474 54.3993 21.1536C54.3657 21.1028 54.3414 21.0462 54.306 20.9954C55.398 20.63 56.6076 20.63 57.6996 20.9954C57.6641 21.0462 57.6398 21.1028 57.6062 21.1536C57.4084 21.4493 57.2273 21.7525 57.063 22.067C57.0276 22.1348 56.9865 22.1989 56.9529 22.2685C56.7681 22.6471 56.6113 23.0407 56.4806 23.44C56.447 23.5436 56.4209 23.649 56.391 23.7545C56.2996 24.069 56.2249 24.3892 56.1652 24.7131C56.1428 24.8336 56.1204 24.9542 56.1036 25.0766C56.042 25.5022 56.0009 25.9316 56.0009 26.3667C56.0009 29.1973 57.274 31.8604 59.4953 33.6684C59.8369 33.9471 60.2532 34.0865 60.6676 34.0865C61.082 34.0865 61.4982 33.9471 61.8398 33.6684C64.0612 31.8604 65.3342 29.1973 65.3342 26.3667C65.3342 25.9316 65.2932 25.5022 65.2353 25.0766C65.2185 24.9542 65.1961 24.8355 65.1737 24.7131C65.1158 24.3892 65.0412 24.069 64.9478 23.7545C64.918 23.649 64.8918 23.5436 64.8564 23.44C64.7238 23.0388 64.5689 22.6471 64.3841 22.2685C64.3505 22.197 64.3076 22.1311 64.2702 22.0614C64.1097 21.7506 63.9305 21.4512 63.7364 21.1592C63.7009 21.1046 63.6748 21.0463 63.6374 20.9935C64.1844 20.8108 64.7518 20.7167 65.3342 20.7167C68.3172 20.7167 70.9342 23.5473 70.9342 26.7772C70.9342 29.5457 69.7246 32.1523 67.6153 33.9245L60.4062 39.9869C59.9806 40.3448 59.7342 40.874 59.7342 41.4333V54.6167H52.2676V41.4333C52.2676 40.874 52.0212 40.3448 51.5956 39.9869L44.3865 33.9245C42.2772 32.1504 41.0676 29.5457 41.0676 26.7772C41.0676 23.5473 43.6846 20.7167 46.6676 20.7167C47.2481 20.7167 47.8174 20.8108 48.3625 20.9935C48.3252 21.0463 48.299 21.1065 48.2636 21.1592C48.0676 21.4512 47.8902 21.7506 47.7297 22.0614C47.6942 22.1311 47.6513 22.197 47.6158 22.2685C47.431 22.6471 47.2761 23.0388 47.1436 23.44C47.11 23.5436 47.0838 23.6509 47.0521 23.7545C46.9606 24.069 46.886 24.3892 46.8262 24.7131C46.8038 24.8336 46.7814 24.9542 46.7646 25.0766C46.7086 25.5022 46.6676 25.9316 46.6676 26.3667C46.6676 29.1973 47.9406 31.8604 50.162 33.6684ZM50.4009 26.3667C50.4009 25.9919 50.4532 25.6246 50.526 25.263C50.5446 25.1764 50.5633 25.0879 50.5857 25.0031C50.6753 24.6509 50.7892 24.3044 50.946 23.9748C50.959 23.9503 50.974 23.9259 50.987 23.9014C51.0841 23.7074 51.2148 23.5304 51.3342 23.3477C51.4537 23.5304 51.5844 23.7074 51.6814 23.9014C51.6926 23.9259 51.7094 23.9485 51.7225 23.9729C51.8793 24.3006 51.9932 24.6472 52.0828 25.0012C52.1052 25.0879 52.1238 25.1745 52.1425 25.2612C52.2153 25.6246 52.2676 25.9919 52.2676 26.3667C52.2676 26.7414 52.2153 27.1087 52.1425 27.4703C52.1238 27.5569 52.1052 27.6455 52.0828 27.7302C51.9932 28.0824 51.8793 28.4289 51.7225 28.7585C51.7113 28.783 51.6945 28.8075 51.6814 28.8319C51.5844 29.0259 51.4537 29.203 51.3342 29.3856C51.2148 29.203 51.0841 29.0259 50.987 28.8319C50.974 28.8075 50.9572 28.783 50.946 28.7585C50.7892 28.4289 50.6753 28.0824 50.5857 27.7302C50.5633 27.6436 50.5446 27.5569 50.526 27.4703C50.4532 27.1087 50.4009 26.7414 50.4009 26.3667ZM59.7342 26.3667C59.7342 25.9919 59.7865 25.6246 59.8593 25.263C59.878 25.1764 59.8966 25.0879 59.919 25.0031C60.0086 24.6509 60.1225 24.3044 60.2793 23.9748C60.2924 23.9503 60.3073 23.9259 60.3204 23.9014C60.4174 23.7074 60.5481 23.5304 60.6676 23.3477C60.787 23.5304 60.9177 23.7074 61.0148 23.9014C61.026 23.9259 61.0428 23.9485 61.0558 23.9729C61.2126 24.3006 61.3265 24.6472 61.4161 25.0012C61.4385 25.0879 61.4572 25.1745 61.4758 25.2612C61.5486 25.6246 61.6009 25.9919 61.6009 26.3667C61.6009 26.7414 61.5486 27.1087 61.4758 27.4703C61.4572 27.5569 61.4385 27.6455 61.4161 27.7302C61.3265 28.0824 61.2126 28.4289 61.0558 28.7585C61.0446 28.783 61.0278 28.8075 61.0148 28.8319C60.9177 29.0259 60.787 29.203 60.6676 29.3856C60.5481 29.203 60.4174 29.0259 60.3204 28.8319C60.3073 28.8075 60.2905 28.783 60.2793 28.7585C60.1225 28.4289 60.0086 28.0824 59.919 27.7302C59.8966 27.6436 59.878 27.5569 59.8593 27.4703C59.7865 27.1087 59.7342 26.7414 59.7342 26.3667ZM72.7598 54.6167H63.4676V42.3147L70.0046 36.8173C72.9689 34.3275 74.6676 30.6663 74.6676 26.7772C74.6676 21.4512 70.3929 16.95 65.3342 16.95C63.6766 16.95 62.0881 17.4095 60.662 18.2627C57.7892 16.5827 54.2164 16.5827 51.3417 18.2627C49.9137 17.4095 48.3252 16.95 46.6676 16.95C41.6089 16.95 37.3342 21.4512 37.3342 26.7772C37.3342 30.6663 39.0329 34.3275 41.9972 36.8192L48.5342 42.3147V54.6167H39.242C32.1916 49.2831 28.0009 40.8872 28.0009 32.0167C28.0009 16.4396 40.5617 3.76667 56.0009 3.76667C71.4401 3.76667 84.0009 16.4396 84.0009 32.0167C84.0009 40.8872 79.8102 49.2831 72.7598 54.6167Z" fill="#ffffff"/>
<path d="M92.0136 0.554992L84.5469 8.08844L87.1867 10.7518L94.6535 3.2184L92.0136 0.554992Z" fill="#ffffff"/>
<path d="M87.1809 53.2816L84.541 55.945L92.0078 63.4784L94.6477 60.815L87.1809 53.2816Z" fill="#ffffff"/>
<path d="M104.534 30.1334H93.334V33.9H104.534V30.1334Z" fill="#ffffff"/>
<path d="M19.9855 0.55229L17.3457 3.2157L24.8125 10.7492L27.4523 8.08574L19.9855 0.55229Z" fill="#ffffff"/>
<path d="M24.8125 53.2835L17.3457 60.817L19.9855 63.4804L27.4523 55.9469L24.8125 53.2835Z" fill="#ffffff"/>
<path d="M18.6687 30.1334H7.46875V33.9H18.6687V30.1334Z" fill="#ffffff"/>
<path d="M82.1337 90.4H78.4004V94.1666H82.1337V90.4Z" fill="#ffffff"/>
<path d="M89.6005 90.4H85.8672V94.1666H89.6005V90.4Z" fill="#ffffff"/>
<path d="M97.0673 90.4H93.334V94.1666H97.0673V90.4Z" fill="#ffffff"/>
<path d="M18.6669 90.4H14.9336V94.1666H18.6669V90.4Z" fill="#ffffff"/>
<path d="M26.1337 90.4H22.4004V94.1666H26.1337V90.4Z" fill="#ffffff"/>
<path d="M33.6005 90.4H29.8672V94.1666H33.6005V90.4Z" fill="#ffffff"/>
</svg>
