<svg width="122" height="101" viewBox="0 0 122 101" fill="none" xmlns="http://www.w3.org/2000/svg">
<path d="M120.834 23.162L82.2545 8.33318C81.3191 7.97377 80.2719 8.44673 79.9154 9.3889C79.5589 10.332 80.0281 11.3877 80.9635 11.7471L115.102 24.869L91.4693 33.9538L61.7474 20.3862C60.8353 19.9695 59.7621 20.3777 59.3497 21.2965C58.9364 22.2161 59.3413 23.2981 60.2526 23.7147L86.699 35.7875L61 45.6652L6.89806 24.869L61 4.07277L74.3326 9.1984C75.2662 9.55687 76.3142 9.08485 76.6716 8.14174C77.0281 7.19957 76.559 6.14386 75.6236 5.78444L61.646 0.411077C61.2299 0.251546 60.7701 0.250608 60.354 0.411077L1.16627 23.162C0.464462 23.4323 0 24.1117 0 24.869V33.2115C0 33.9688 0.464462 34.6482 1.16627 34.9185L19.6489 42.0223V48.3528C19.6489 49.3616 20.4596 50.1799 21.4602 50.1799C22.4617 50.1799 23.2724 49.3616 23.2724 48.3528V43.4158L60.354 57.6694C60.5625 57.7492 60.7813 57.7896 61 57.7896C61.2187 57.7896 61.4375 57.7492 61.646 57.6694L89.5975 46.9255V75.8362C80.822 80.4804 70.9818 82.9691 61 82.9691C47.377 82.9691 34.0146 78.339 23.2724 69.9129V55.6603C23.2724 54.6515 22.4617 53.8332 21.4602 53.8332C20.4596 53.8332 19.6489 54.6515 19.6489 55.6603V70.7979C19.6489 71.3525 19.8983 71.8771 20.3274 72.2233C31.8236 81.5089 46.2684 86.6224 61 86.6224C70.9352 86.6224 80.7383 84.2932 89.5975 79.9305V87.3243C86.6776 88.1285 84.5247 90.8246 84.5247 94.0199C84.5247 97.8468 87.613 100.961 91.4088 100.961C95.2055 100.961 98.2938 97.8468 98.2938 94.0199C98.2938 90.8246 96.1409 88.1285 93.221 87.3243V78.0012C96.1744 76.3073 99.004 74.3798 101.673 72.2233C102.103 71.8771 102.353 71.3525 102.353 70.7979V42.0214L120.834 34.9176C121.536 34.6482 122 33.9688 122 33.2106V24.869C122 24.1117 121.536 23.4323 120.834 23.162ZM94.6703 94.0199C94.6703 95.832 93.2071 97.3072 91.4088 97.3072C89.6114 97.3072 88.1482 95.832 88.1482 94.0199C88.1482 92.2069 89.6114 90.7317 91.4088 90.7317C93.2071 90.7317 94.6703 92.2069 94.6703 94.0199ZM3.62355 27.521L59.1878 48.8793V53.3105L3.62355 31.9522V27.521ZM62.8122 53.3105V48.8793L89.5975 38.583V43.0151L62.8122 53.3105ZM98.7285 69.912C96.9609 71.299 95.1208 72.5809 93.221 73.7576V45.532L98.7285 43.4149V69.912ZM93.221 41.6216V37.1904L118.376 27.521V31.9522L93.221 41.6216Z" fill="#072A54"/>
</svg>
