<svg width="99" height="99" viewBox="0 0 99 99" fill="none" xmlns="http://www.w3.org/2000/svg">
<path fill-rule="evenodd" clip-rule="evenodd" d="M92.0343 65.8885C89.1113 65.8885 86.6325 67.8287 85.8131 70.491H82.936L73.5624 61.1012V38.1363L82.936 28.7464H85.8131C86.6325 31.4088 89.1113 33.3489 92.0343 33.3489C95.6234 33.3489 98.5433 30.424 98.5433 26.8287C98.5433 23.2334 95.6234 20.3085 92.0343 20.3085C89.1113 20.3085 86.6325 22.2487 85.8131 24.911H82.1429C81.6352 24.911 81.1484 25.1131 80.7892 25.4727L71.3119 34.9667L51.4493 23.9426V13.278C54.1069 12.4573 56.0438 9.97421 56.0438 7.04607C56.0438 3.45076 53.124 0.525879 49.5349 0.525879C45.9458 0.525879 43.026 3.45076 43.026 7.04607C43.026 9.97421 44.963 12.4573 47.6205 13.278V23.9426L27.758 34.9667L18.2804 25.4727C17.9213 25.1131 17.4344 24.911 16.9267 24.911H13.2565C12.4371 22.2487 9.95837 20.3085 7.03529 20.3085C3.44619 20.3085 0.526367 23.2334 0.526367 26.8287C0.526367 30.424 3.44619 33.3489 7.03529 33.3489C9.95837 33.3489 12.4371 31.4088 13.2565 28.7464H16.1336L25.5072 38.1363V61.1014L16.1336 70.4912H13.2565C12.4371 67.8288 9.95837 65.8887 7.03529 65.8887C3.44619 65.8887 0.526367 68.8136 0.526367 72.4089C0.526367 76.0042 3.44619 78.9291 7.03529 78.9291C9.95837 78.9291 12.4371 76.989 13.2565 74.3266H16.9267C17.4344 74.3266 17.9213 74.1245 18.2804 73.7649L27.7578 64.2711L30.1249 65.5849C31.05 66.0981 32.2147 65.7635 32.7273 64.837C33.2398 63.9106 32.9056 62.7435 31.9807 62.2301L29.3362 60.7623V40.6003L47.6207 50.7486V70.9102L45.2203 69.578C44.2952 69.0648 43.1301 69.3995 42.6178 70.3259C42.1054 71.2523 42.4396 72.4195 43.3645 72.9328L47.6205 75.2951V85.9598C44.963 86.7806 43.026 89.2636 43.026 92.1917C43.026 95.7871 45.9458 98.7119 49.5349 98.7119C53.124 98.7119 56.0438 95.7871 56.0438 92.1917C56.0438 89.2636 54.1069 86.7806 51.4493 85.9598V75.2951L71.3119 64.2709L80.7892 73.7649C81.1484 74.1245 81.6352 74.3266 82.1429 74.3266H85.8131C86.6325 76.989 89.1113 78.9291 92.0343 78.9291C95.6234 78.9291 98.5433 76.0042 98.5433 72.4089C98.5431 68.8136 95.6234 65.8885 92.0343 65.8885ZM63.8755 39.7405C64.3809 39.7405 64.8728 39.9455 65.2287 40.3024C65.5867 40.661 65.7898 41.1558 65.7898 41.6582C65.7898 42.1626 65.5867 42.6574 65.2287 43.0139C64.8728 43.3725 64.3789 43.5759 63.8755 43.5759C63.3718 43.5759 62.8781 43.3725 62.522 43.0139C62.1657 42.6574 61.9611 42.1645 61.9611 41.6582C61.9611 41.1537 62.1659 40.661 62.522 40.3024C62.8781 39.9455 63.3718 39.7405 63.8755 39.7405ZM37.9932 65.84C38.4967 65.84 38.9906 66.0454 39.3465 66.4019C39.7028 66.7605 39.9076 67.2533 39.9076 67.7577C39.9076 68.2638 39.7026 68.7568 39.3465 69.1135C38.9887 69.4721 38.4967 69.6753 37.9932 69.6753C37.4876 69.6753 36.9958 69.4721 36.6378 69.1135C36.2817 68.7568 36.0788 68.2639 36.0788 67.7577C36.0788 67.2533 36.2817 66.7605 36.6378 66.4019C36.9939 66.0452 37.4876 65.84 37.9932 65.84ZM94.7144 26.8291C94.7144 25.3486 93.5122 24.1443 92.0343 24.1443C90.5564 24.1443 89.3542 25.3486 89.3542 26.8291C89.3542 28.3095 90.5564 29.5139 92.0343 29.5139C93.5122 29.5139 94.7144 28.3095 94.7144 26.8291ZM7.03547 29.5139C5.55756 29.5139 4.35531 28.3095 4.35531 26.8291C4.35531 25.3486 5.55756 24.1443 7.03547 24.1443C8.51339 24.1443 9.71563 25.3486 9.71563 26.8291C9.71563 28.3095 8.51339 29.5139 7.03547 29.5139ZM4.35531 72.4089C4.35531 73.8894 5.55756 75.0937 7.03547 75.0937C8.51339 75.0937 9.71563 73.8894 9.71563 72.4089C9.71563 70.9284 8.51339 69.7241 7.03547 69.7241C5.55756 69.7241 4.35531 70.9284 4.35531 72.4089ZM46.8548 7.04618C46.8548 5.56572 48.057 4.36141 49.5349 4.36141C51.0128 4.36141 52.215 5.56572 52.215 7.04618C52.215 8.52664 51.0128 9.73096 49.5349 9.73096C48.057 9.73096 46.8548 8.52664 46.8548 7.04618ZM49.5349 94.8765C51.0128 94.8765 52.215 93.6722 52.215 92.1917C52.215 90.7113 51.0128 89.507 49.5349 89.507C48.057 89.507 46.8548 90.7113 46.8548 92.1917C46.8548 93.6722 48.057 94.8765 49.5349 94.8765ZM69.7338 60.7626L51.4492 70.9107V50.749H51.4494L57.8938 47.1723C58.8187 46.6589 59.1529 45.4918 58.6404 44.5654C58.128 43.6391 56.9634 43.3043 56.038 43.8175L49.5348 47.4266L31.3717 37.346L49.5348 27.2652L69.7338 38.4759V60.7626ZM89.3542 72.4089C89.3542 73.8894 90.5564 75.0937 92.0343 75.0937C93.5122 75.0937 94.7144 73.8894 94.7144 72.4089C94.7144 70.9284 93.5122 69.7241 92.0343 69.7241C90.5564 69.7241 89.3542 70.9284 89.3542 72.4089Z" fill="#F94040"/>
</svg>
