<svg width="102" height="103" viewBox="0 0 102 103" fill="none" xmlns="http://www.w3.org/2000/svg">
<g clip-path="url(#clip0)">
<path d="M96.6637 39.1716C100.88 33.9658 102.724 27.2049 101.742 20.5534C99.8364 7.42469 87.7524 -1.65873 74.7509 0.26525C68.8892 1.13275 63.5587 4.17715 59.8024 8.80316C56.8373 12.6275 51.9221 14.3331 47.2553 13.157C43.3313 12.0561 39.2286 11.7596 35.1892 12.2852C21.5326 14.1472 10.7556 24.9304 8.7864 38.7031C7.94113 44.8518 8.96145 51.1147 11.7129 56.6657C5.14999 56.7614 -0.0934808 62.2114 0.001264 68.8384C0.0864493 74.8021 4.49612 79.7977 10.3533 80.5661L12.187 99.5584C12.187 101.454 13.7087 102.991 15.5859 102.991H25.5023C26.4945 102.99 27.4371 102.551 28.082 101.789C28.7533 100.98 29.028 99.9085 28.8298 98.872L24.2855 80.6811H25.1352C27.0148 80.6914 28.8918 80.8278 30.7536 81.0895C36.8532 94.4427 50.0868 102.993 64.6493 102.991C65.7709 102.991 66.9038 102.94 68.0482 102.838C86.0776 101.041 100.285 86.5359 101.867 68.3113C102.534 60.2239 100.582 52.1365 96.3051 45.2656C95.1182 43.3669 95.2625 40.9152 96.6637 39.1716ZM10.2071 77.0773C5.60799 76.1343 2.63691 71.605 3.57076 66.9607C4.2497 63.5841 6.86325 60.9449 10.2071 60.2593V77.0773ZM25.5023 99.5584L15.5774 99.3868L13.776 80.6811H20.7761L25.5023 99.5584ZM13.6061 77.2489V60.0877H17.005V77.2489H13.6061ZM25.1301 77.2489H20.4039V60.0877H25.1301C30.0621 60.0894 34.9619 59.2862 39.6401 57.7091L47.5952 55.032V82.3046L39.6401 79.6274C34.9619 78.0505 30.0621 77.2472 25.1301 77.2489ZM98.4685 68.035C96.9672 86.8997 80.6061 100.964 61.9246 99.4477C50.574 98.5266 40.4375 91.9183 34.9343 81.8515C36.1545 82.145 37.3679 82.4796 38.566 82.8812L57.26 89.1725C57.4315 89.2304 57.6112 89.2604 57.792 89.2617C58.7305 89.2617 59.4914 88.4933 59.4914 87.5456V78.965C63.2458 78.965 66.2893 75.8916 66.2893 72.1005V65.236C66.2893 61.4449 63.2458 58.3716 59.4914 58.3716V49.791C59.4916 48.8432 58.7309 48.0746 57.7924 48.0744C57.6097 48.0744 57.4283 48.104 57.2549 48.1624L38.5609 54.4537C34.2305 55.9124 29.6953 56.6559 25.1301 56.6554H15.5859C12.5305 51.3743 11.322 45.2094 12.1547 39.151C14.2085 24.1386 27.9253 13.6497 42.7919 15.7234C43.9888 15.8903 45.1733 16.1379 46.3376 16.4639C52.3025 18.0086 58.6088 15.8605 62.4281 10.9826C69.5431 2.174 82.3823 0.857526 91.1056 8.04206C99.8289 15.2266 101.133 28.1919 94.0176 37.0007C91.6981 39.8844 91.4555 43.9398 93.4143 47.0846C97.301 53.3313 99.0746 60.6832 98.4685 68.035ZM50.9941 83.4492V53.8873L56.0925 52.1712V85.1653L50.9941 83.4492ZM59.4914 75.5328V61.8038C61.3687 61.8038 62.8904 63.3404 62.8904 65.236V72.1005C62.8904 73.9962 61.3685 75.5328 59.4914 75.5328Z" fill="#ffffff"/>
<path d="M30.6006 70.3849H23.8027V73.8171H30.6006V70.3849Z" fill="#ffffff"/>
<path d="M30.6006 63.5202H23.8027V66.9524H30.6006V63.5202Z" fill="#ffffff"/>
<path d="M86.3985 23.0976C86.274 22.9093 86.114 22.7475 85.9273 22.6218L75.7305 15.7573C74.9499 15.2313 73.8945 15.4439 73.3736 16.2325C73.1873 16.5146 73.0879 16.846 73.0879 17.1851V30.9141C73.0877 31.5471 73.4325 32.1289 73.9852 32.4277C74.5382 32.7265 75.209 32.6935 75.7305 32.3419L85.9273 25.4774C86.7082 24.9516 86.9191 23.8862 86.3985 23.0976ZM76.4868 27.7067V20.3926L81.9251 24.0496L76.4868 27.7067Z" fill="#ffffff"/>
<path d="M78.1857 8.60437C69.7386 8.60437 62.8906 15.5193 62.8906 24.0494C62.9 32.5756 69.7424 39.4851 78.1857 39.4945C86.6331 39.4945 93.4809 32.5794 93.4809 24.0494C93.4809 15.5195 86.6329 8.60437 78.1857 8.60437ZM78.1857 36.0623C71.6156 36.0623 66.2895 30.684 66.2895 24.0494C66.297 17.4181 71.6188 12.0441 78.1857 12.0366C84.7558 12.0366 90.0819 17.4149 90.0819 24.0494C90.0819 30.684 84.7558 36.0623 78.1857 36.0623Z" fill="#ffffff"/>
<path d="M44.1969 30.9141H42.4975C41.559 30.9141 40.798 30.1457 40.798 29.198V24.0496C40.798 21.2062 38.5154 18.9012 35.6997 18.9012C32.8839 18.9012 30.6013 21.2062 30.6013 24.0496V29.198C30.6013 30.1457 29.8404 30.9141 28.9018 30.9141C28.9018 29.9664 28.1409 29.198 27.2024 29.198H20.4045C19.466 29.198 18.7051 29.9664 18.7051 30.9141V49.7914C18.7051 50.7391 19.466 51.5075 20.4045 51.5075H27.2024C28.1409 51.5075 28.9018 50.7391 28.9018 49.7914H44.1969C47.0127 49.7914 49.2953 47.4865 49.2953 44.6431V36.0625C49.2953 33.2193 47.0127 30.9141 44.1969 30.9141ZM25.5029 48.0753H22.104V32.6302H25.5029V48.0753ZM45.8964 44.6431C45.8964 45.5908 45.1355 46.3592 44.1969 46.3592H28.9018V34.3463C31.7176 34.3463 34.0002 32.0414 34.0002 29.198V24.0496C34.0002 23.1019 34.7611 22.3335 35.6997 22.3335C36.6382 22.3335 37.3991 23.1019 37.3991 24.0496V29.198C37.3991 32.0414 39.6817 34.3463 42.4975 34.3463H44.1969C45.1355 34.3463 45.8964 35.1147 45.8964 36.0625V44.6431Z" fill="#ffffff"/>
<path d="M93.6843 62.3226L92.9604 61.5881C91.2384 59.8606 88.5513 59.5925 86.5279 60.9463L84.6908 62.1836L82.8537 60.9463C80.8305 59.5912 78.1426 59.8593 76.4212 61.5881L75.6939 62.3226C73.7036 64.333 73.7036 67.592 75.6939 69.6024L83.4876 77.4708C84.1512 78.1407 85.227 78.1407 85.8906 77.4708L93.6843 69.6024C95.6746 67.592 95.6746 64.333 93.6843 62.3226ZM91.2843 67.1745C91.2839 67.1749 91.2834 67.1754 91.283 67.1758L84.6908 73.8309L78.1003 67.1827C77.4369 66.5125 77.4369 65.4262 78.1003 64.7561L78.826 64.0233C79.3989 63.4445 80.2966 63.3549 80.9707 63.8088L83.7493 65.6793C84.3203 66.0642 85.0647 66.0642 85.6357 65.6793L88.416 63.8088C89.0894 63.3553 89.9861 63.4443 90.559 64.0216V64.0147L91.283 64.7475C91.9471 65.4174 91.9477 66.5039 91.2843 67.1745Z" fill="#ffffff"/>
<path d="M66.3438 45.9451L64.6426 52.8091L67.9382 53.642L69.6395 46.778L66.3438 45.9451Z" fill="#ffffff"/>
<path d="M75.7252 51.6884L68.9277 55.1204L70.4477 58.1902L77.2452 54.7582L75.7252 51.6884Z" fill="#ffffff"/>
<path d="M67.9304 85.4127L64.6348 86.2446L66.3339 93.1085L69.6296 92.2766L67.9304 85.4127Z" fill="#ffffff"/>
<path d="M70.4438 80.8616L68.9238 83.9314L75.7212 87.3634L77.2412 84.2936L70.4438 80.8616Z" fill="#ffffff"/>
<path d="M1.70898 46.3591H5.1079C5.1079 23.0713 18.7834 8.60442 40.7965 8.60442V5.17218C16.6863 5.17218 1.70898 20.9605 1.70898 46.3591Z" fill="#ffffff"/>
</g>
<defs>
<clipPath id="clip0">
<rect width="102" height="103" fill="white"/>
</clipPath>
</defs>
</svg>
