<svg width="99" height="99" viewBox="0 0 99 99" fill="none" xmlns="http://www.w3.org/2000/svg">
<path fill-rule="evenodd" clip-rule="evenodd" d="M49.1042 0C53.0001 0 56.8784 0.457947 60.632 1.3608C61.6618 1.60857 62.2959 2.64432 62.0481 3.67413C61.8001 4.70374 60.7658 5.33812 59.7343 5.08997C56.2745 4.25749 52.698 3.83541 49.1042 3.83541C42.6765 3.83541 36.5588 5.1847 31.0156 7.61021H33.537C37.2557 7.61021 40.2808 10.6346 40.2808 14.3525C40.2808 18.0703 37.2557 21.0947 33.537 21.0947H30.3853C29.6014 21.0947 28.9638 21.7322 28.9638 22.5159C28.9638 23.2997 29.6014 23.9371 30.3853 23.9371H43.3912C47.6124 23.9371 51.0467 27.3704 51.0467 31.5907C51.0467 35.811 47.6124 39.2444 43.3912 39.2444H25.448C23.261 39.2444 21.4817 41.0235 21.4817 43.2101C21.4817 45.3966 23.2612 47.1755 25.448 47.1755H32.3526C36.7361 47.1755 40.3021 50.7411 40.3021 55.1234C40.3021 59.5057 36.7361 63.0711 32.3526 63.0711H20.3322C19.273 63.0711 18.4141 62.2124 18.4141 61.1534C18.4141 60.0945 19.273 59.2357 20.3322 59.2357H32.3526C34.6206 59.2357 36.4658 57.3909 36.4658 55.1234C36.4658 52.8557 34.6206 51.0109 32.3526 51.0109H25.448C21.1457 51.0109 17.6455 47.5115 17.6455 43.2101C17.6455 38.9085 21.1457 35.409 25.448 35.409H43.3912C45.4971 35.409 47.2104 33.6961 47.2104 31.5907C47.2104 29.4854 45.4971 27.7726 43.3912 27.7726H30.3853C27.4863 27.7726 25.1275 25.4144 25.1275 22.5159C25.1275 19.6175 27.4863 17.2593 30.3853 17.2593H33.537C35.1402 17.2593 36.4443 15.9553 36.4443 14.3525C36.4443 12.7497 35.14 11.4456 33.5368 11.4456H24.0089C11.856 19.5696 3.83626 33.4119 3.83626 49.0932C3.83626 58.5452 6.69159 67.5269 12.1095 75.1795C13.2228 74.6228 14.4577 74.3263 15.7387 74.3263C17.9092 74.3263 19.9501 75.1715 21.4852 76.706C23.0201 78.2407 23.8654 80.2812 23.8654 82.4512C23.8654 84.6213 23.0201 86.6618 21.4852 88.1965C19.9501 89.731 17.9092 90.5762 15.7387 90.5762C13.5681 90.5762 11.5272 89.731 9.99212 88.1965C8.45723 86.6618 7.61191 84.6213 7.61191 82.4512C7.61191 80.7063 8.15935 79.046 9.17136 77.6643C3.16722 69.3025 0 59.4584 0 49.0932C0 35.9799 5.10779 23.6516 14.3822 14.3789C23.6569 5.10665 35.988 0 49.1042 0ZM15.7388 78.162C14.5929 78.162 13.5155 78.6085 12.7051 79.4185C11.8946 80.2285 11.4483 81.3059 11.4483 82.4515C11.4483 83.5972 11.8948 84.6743 12.7051 85.4846C13.5153 86.2948 14.5929 86.7411 15.7388 86.7411C16.8847 86.7411 17.9621 86.2948 18.7725 85.4846C19.5829 84.6743 20.0293 83.5972 20.0293 82.4515C20.0293 81.3059 19.5828 80.2287 18.7725 79.4185C17.9623 78.6083 16.8847 78.162 15.7388 78.162ZM89.0371 20.5219C90.0489 19.1402 90.5964 17.4798 90.5964 15.7351C90.5964 13.565 89.751 11.5246 88.2161 9.98987C86.6811 8.45533 84.6402 7.6102 82.4696 7.6102C80.2991 7.6102 78.2582 8.45533 76.7231 9.98987C75.1882 11.5246 74.3429 13.565 74.3429 15.7351C74.3429 17.9052 75.1882 19.9456 76.7231 21.4804C78.2582 23.0149 80.2991 23.86 82.4696 23.86C83.7504 23.86 84.9849 23.5638 86.098 23.0072C87.489 24.9727 88.7108 27.0258 89.7591 29.1521H68.6967C64.313 29.1521 60.747 32.7177 60.747 37.1001C60.747 41.4824 64.3132 45.0478 68.6967 45.0478H75.601C77.7878 45.0478 79.5673 46.8266 79.5673 49.0134C79.5673 51.1998 77.788 52.9788 75.601 52.9788H60.7525C56.5313 52.9788 53.0971 56.4123 53.0971 60.6326C53.0971 64.8529 56.5313 68.2863 60.7525 68.2863H67.7311C69.2002 68.2863 70.3956 69.4811 70.3956 70.95C70.3956 72.419 69.2004 73.6139 67.7311 73.6139H64.8328C61.1504 73.6139 58.1544 76.6092 58.1544 80.291C58.1544 83.9726 61.1504 86.9678 64.8328 86.9678H73.8547C66.7367 91.6332 58.2325 94.3512 49.1041 94.3512C45.264 94.3512 41.4508 93.87 37.7695 92.921C36.7425 92.6563 35.6975 93.2738 35.433 94.2992C35.1685 95.325 35.7858 96.3707 36.8116 96.6352C40.8055 97.6644 44.9414 98.1866 49.1041 98.1866C62.2203 98.1866 74.5514 93.0799 83.8261 83.8076C93.1005 74.535 98.2083 62.2066 98.2083 49.0934C98.2083 38.7345 95.0405 28.885 89.0371 20.5219ZM82.4696 20.0248C83.6155 20.0248 84.6929 19.5783 85.5033 18.7683C86.3137 17.9583 86.7601 16.8809 86.7601 15.7352C86.7601 14.5896 86.3135 13.5124 85.5033 12.7022C84.6931 11.892 83.6155 11.4457 82.4696 11.4457C81.3237 11.4457 80.2463 11.8922 79.4358 12.7022C78.6254 13.5122 78.1791 14.5896 78.1791 15.7352C78.1791 16.8809 78.6254 17.9581 79.4358 18.7683C80.2461 19.5785 81.3237 20.0248 82.4696 20.0248ZM78.9025 83.1325H64.8326C63.2655 83.1325 61.9905 81.8578 61.9905 80.291C61.9905 78.7241 63.2655 77.4494 64.8326 77.4494H67.7307C71.3153 77.4494 74.2314 74.5339 74.2314 70.9501C74.2314 67.3665 71.3153 64.451 67.7307 64.451H60.7522C58.6462 64.451 56.933 62.7381 56.933 60.6327C56.933 58.5272 58.6462 56.8143 60.7522 56.8143H75.6006C79.903 56.8143 83.4032 53.3149 83.4032 49.0135C83.4032 44.7119 79.903 41.2125 75.6006 41.2125H68.6963C66.4281 41.2125 64.5829 39.3677 64.5829 37.1002C64.5829 34.8325 66.4281 32.9877 68.6963 32.9877H91.433C93.3719 38.0746 94.3718 43.5036 94.3718 49.0933C94.3718 62.6493 88.3778 74.8308 78.9025 83.1325ZM32.2453 91.108L32.298 91.1291C33.2801 91.5263 33.7544 92.644 33.3572 93.6257C33.0553 94.372 32.337 94.8251 31.5783 94.8251C31.339 94.8251 31.0957 94.7801 30.86 94.685L30.8073 94.6639C29.8252 94.2667 29.351 93.1489 29.7479 92.1671C30.1453 91.1855 31.263 90.7115 32.2453 91.108ZM67.4941 3.56L67.4722 3.55118C66.4918 3.14886 65.3714 3.61792 64.9694 4.59746C64.5673 5.57739 65.0359 6.6975 66.0159 7.09963L66.0279 7.10448L66.0443 7.11114C66.2804 7.20702 66.5248 7.25247 66.7652 7.25247C67.5203 7.25247 68.2362 6.80373 68.5406 6.06217C68.9427 5.08225 68.4741 3.96214 67.4941 3.56ZM13.2351 59.236C13.7396 59.236 14.2345 59.4414 14.5911 59.7979C14.948 60.1546 15.1533 60.6494 15.1533 61.1537C15.1533 61.6581 14.9478 62.1529 14.5911 62.5096C14.2345 62.8662 13.7396 63.0714 13.2351 63.0714C12.7307 63.0714 12.2358 62.8661 11.879 62.5096C11.5221 62.1529 11.317 61.6581 11.317 61.1537C11.317 60.6494 11.5223 60.1546 11.879 59.7979C12.2358 59.4414 12.7307 59.236 13.2351 59.236Z" fill="#F94040"/>
</svg>
