<svg width="99" height="99" viewBox="0 0 99 99" fill="none" xmlns="http://www.w3.org/2000/svg">
<path fill-rule="evenodd" clip-rule="evenodd" d="M63.2446 0.525879C59.2259 0.525879 55.9562 3.79477 55.9562 7.81253C55.9562 11.8303 59.2257 15.0992 63.2446 15.0992C67.2633 15.0992 70.5329 11.8303 70.5329 7.81253C70.5329 3.79477 67.2633 0.525879 63.2446 0.525879ZM95.2263 50.6849C96.9915 51.9943 98.0741 54.0038 98.1965 56.1979C98.3189 58.3923 97.4663 60.5098 95.8575 62.0068L73.1473 83.1437C70.8681 85.2645 67.8987 86.4326 64.7856 86.4326H54.4749C53.4157 86.4326 52.5569 85.574 52.5569 84.5151C52.5569 83.4563 53.4155 82.5976 54.4749 82.5976H64.7854C66.9256 82.5976 68.9669 81.7946 70.5334 80.3368L93.2431 59.1997C94.0154 58.4807 94.4249 57.4645 94.366 56.4111C94.3071 55.3577 93.7877 54.3931 92.9403 53.7647C91.5692 52.7475 89.6666 52.8534 88.4167 54.0171L68.8829 72.2051C68.528 72.5357 68.061 72.7195 67.5759 72.7195L49.5476 72.706C48.4884 72.706 47.6296 71.8473 47.6296 70.7885C47.6296 69.7298 48.4882 68.871 49.5476 68.871H62.9192C64.5844 68.871 65.9648 67.6218 66.1304 65.9653C66.2827 64.4405 65.3296 63.0082 63.8641 62.5595L44.2307 56.549C41.4512 55.6983 38.4115 56.042 35.8922 57.4921L22.8041 65.0262L39.4204 81.6387C41.7462 83.9641 41.7462 87.7476 39.4204 90.073L32.5282 96.9636C31.4015 98.0899 29.9034 98.7103 28.31 98.7103C26.7167 98.7103 25.2188 98.0901 24.0919 96.9636L1.74703 74.6237C0.620515 73.4973 0 71.9996 0 70.4065C0 68.8135 0.620515 67.3159 1.74722 66.1895L8.63945 59.299C9.76615 58.1727 11.2642 57.5523 12.8576 57.5523C14.451 57.5523 15.9489 58.1725 17.0758 59.299L19.9955 62.2181L33.9787 54.1689C35.2426 53.4416 36.6029 52.9199 38.0058 52.6066C41.1997 49.2481 44.9584 46.5965 49.1839 44.7264C50.0476 44.344 50.9225 43.9994 51.8073 43.6902C51.8073 43.6871 51.8071 43.6839 51.8068 43.6808C51.8066 43.6777 51.8064 43.6746 51.8064 43.6714V33.9845L43.9837 28.0853C43.5032 27.7232 43.2206 27.1564 43.2206 26.5546V18.9254C40.6359 18.101 38.7585 15.6779 38.7585 12.824C38.7585 9.29314 41.6316 6.42062 45.1633 6.42062C48.695 6.42062 51.5681 9.29334 51.5681 12.824C51.5681 15.6962 49.6669 18.1326 47.0565 18.9417V25.5986L54.8792 31.4979C55.3597 31.8599 55.6422 32.4268 55.6422 33.0286V42.5964C57.5038 42.1797 59.401 41.9158 61.3268 41.8093V26.2215C61.3268 25.1627 62.1854 24.304 63.2447 24.304C64.3039 24.304 65.1627 25.1625 65.1627 26.2215V41.8036C67.1295 41.9066 69.0672 42.1716 70.9598 42.5937V33.0288C70.9598 32.4274 71.2424 31.8605 71.7229 31.498L79.5456 25.5988V18.9415C76.9352 18.1326 75.034 15.6962 75.034 12.824C75.034 9.29314 77.9071 6.42062 81.4388 6.42062C84.9704 6.42062 87.8436 9.29334 87.8436 12.824C87.8436 15.6778 85.9661 18.1008 83.3815 18.9254V26.554C83.3815 27.1554 83.0989 27.7223 82.6184 28.0847L74.7957 33.9842V43.671C74.7957 43.6758 74.795 43.6804 74.795 43.685C79.0912 45.1791 83.0757 47.5155 86.5383 50.6099C89.1119 48.7666 92.6268 48.7568 95.2263 50.6849ZM81.4386 10.2553C80.0221 10.2553 78.8697 11.4077 78.8697 12.8237C78.8697 14.2398 80.0219 15.3921 81.4386 15.3921C82.8554 15.3921 84.0076 14.24 84.0076 12.8237C84.0076 11.4075 82.855 10.2553 81.4386 10.2553ZM45.1636 15.3921C43.7471 15.3921 42.5947 14.24 42.5947 12.8237C42.5947 11.4075 43.7471 10.2553 45.1636 10.2553C46.58 10.2553 47.7326 11.4075 47.7326 12.8237C47.7326 14.24 46.58 15.3921 45.1636 15.3921ZM36.708 87.3609C37.5383 86.5309 37.5383 85.1803 36.708 84.3503L14.3629 62.0105C13.9609 61.6082 13.4261 61.3869 12.8574 61.3869C12.2889 61.3869 11.7541 61.6082 11.3518 62.0105L4.45964 68.9012C4.0574 69.3031 3.83586 69.8378 3.83586 70.4064C3.83586 70.975 4.0574 71.5096 4.45964 71.9118L26.8047 94.2515C27.2067 94.6539 27.7417 94.8752 28.3102 94.8752C28.8787 94.8752 29.4135 94.6539 29.8157 94.2515L36.708 87.3609ZM69.9746 65.9482C70.1114 62.7627 68.0671 59.8351 64.9875 58.8923L45.3543 52.8818C44.828 52.7207 44.2946 52.5942 43.7577 52.4956C49.2619 48.0162 56.0623 45.5884 63.3013 45.5884C70.856 45.5884 78.0177 48.278 83.6705 53.1961L69.9746 65.9482ZM46.7354 82.5974C47.2396 82.5974 47.7345 82.8026 48.0913 83.1593C48.4481 83.516 48.6533 84.0106 48.6533 84.5149C48.6533 85.0191 48.4481 85.5139 48.0913 85.8704C47.7347 86.2272 47.2398 86.4324 46.7354 86.4324C46.2291 86.4324 45.7362 86.2271 45.3775 85.8704C45.0207 85.5141 44.8174 85.0193 44.8174 84.5149C44.8174 84.0108 45.0207 83.516 45.3775 83.1593C45.736 82.8024 46.229 82.5974 46.7354 82.5974ZM64.6013 18.1544C64.2445 17.7977 63.7497 17.5925 63.2454 17.5925C62.739 17.5925 62.2462 17.7977 61.8875 18.1544C61.5308 18.511 61.3274 19.0058 61.3274 19.5099C61.3274 20.0143 61.5308 20.509 61.8875 20.8653C62.2462 21.222 62.7392 21.4274 63.2454 21.4274C63.7498 21.4274 64.2447 21.2222 64.6013 20.8653C64.9581 20.5088 65.1633 20.0141 65.1633 19.5099C65.1633 19.0056 64.9581 18.5109 64.6013 18.1544ZM29.0708 84.5152C29.5751 84.5152 30.07 84.7204 30.4268 85.0771C30.7835 85.4338 30.9888 85.9285 30.9888 86.4327C30.9888 86.9369 30.7835 87.4316 30.4268 87.7881C30.0702 88.145 29.5753 88.3502 29.0708 88.3502C28.5665 88.3502 28.0717 88.145 27.7149 87.7881C27.3581 87.4318 27.1529 86.937 27.1529 86.4327C27.1529 85.9285 27.3581 85.4338 27.7149 85.0771C28.0715 84.7202 28.5664 84.5152 29.0708 84.5152ZM59.7922 7.81304C59.7922 9.71634 61.341 11.2647 63.2446 11.2647C65.1481 11.2647 66.697 9.71634 66.697 7.81304C66.697 5.90974 65.1481 4.36141 63.2446 4.36141C61.3407 4.36141 59.7922 5.90974 59.7922 7.81304ZM31.2542 21.5004H29.9388C28.8794 21.5004 28.0208 22.3591 28.0208 23.4178C28.0208 24.4766 28.8796 25.3353 29.9388 25.3353H31.2542C32.3136 25.3353 33.1722 24.4766 33.1722 23.4178C33.1722 22.3591 32.3134 21.5004 31.2542 21.5004ZM20.6327 21.5004H21.9481C23.0073 21.5004 23.8661 22.3591 23.8661 23.4178C23.8661 24.4766 23.0075 25.3353 21.9481 25.3353H20.6327C19.5735 25.3353 18.7148 24.4766 18.7148 23.4178C18.7148 22.3591 19.5733 21.5004 20.6327 21.5004ZM25.9433 25.4946C24.8839 25.4946 24.0254 26.3534 24.0254 27.4122V28.7274C24.0254 29.7863 24.8841 30.6449 25.9433 30.6449C27.0027 30.6449 27.8612 29.7862 27.8612 28.7274V27.4122C27.8612 26.3532 27.0025 25.4946 25.9433 25.4946ZM24.0254 18.1079C24.0254 17.0491 24.8839 16.1904 25.9433 16.1904C27.0025 16.1904 27.8612 17.0491 27.8612 18.1081V19.423C27.8612 20.4818 27.0027 21.3405 25.9433 21.3405C24.8841 21.3405 24.0254 20.482 24.0254 19.423V18.1079ZM96.2827 32.581H94.9672C93.9078 32.581 93.0493 33.4397 93.0493 34.4985C93.0493 35.5573 93.908 36.4161 94.9672 36.4161H96.2827C97.342 36.4161 98.2006 35.5573 98.2006 34.4985C98.2006 33.4397 97.3418 32.581 96.2827 32.581ZM85.6607 32.581H86.9762C88.0354 32.581 88.8941 33.4397 88.8941 34.4985C88.8941 35.5573 88.0356 36.4161 86.9762 36.4161H85.6607C84.6015 36.4161 83.7428 35.5573 83.7428 34.4985C83.7428 33.4397 84.6013 32.581 85.6607 32.581ZM90.9718 36.576C89.9124 36.576 89.0538 37.4348 89.0538 38.4936V39.8087C89.0538 40.8677 89.9126 41.7262 90.9718 41.7262C92.0312 41.7262 92.8897 40.8675 92.8897 39.8087V38.4936C92.8897 37.4346 92.0312 36.576 90.9718 36.576ZM89.0538 29.1893C89.0538 28.1305 89.9124 27.2718 90.9718 27.2718C92.0312 27.2718 92.8897 28.1303 92.8897 29.1893V30.5044C92.8897 31.5632 92.0312 32.422 90.9718 32.422C89.9126 32.422 89.0538 31.5636 89.0538 30.5044V29.1893Z" fill="#F94040"/>
</svg>
