<svg width="346" height="332" viewBox="0 0 346 332" fill="none" xmlns="http://www.w3.org/2000/svg">
<path d="M46.1008 2H2V46.1008" stroke="#34495E" stroke-width="3" stroke-linecap="round"/>
<path d="M2 285.899L2 330L46.1008 330" stroke="#34495E" stroke-width="3" stroke-linecap="round"/>
<path d="M299.68 330L343.781 330L343.781 285.899" stroke="#34495E" stroke-width="3" stroke-linecap="round"/>
<path d="M343.781 46.1008L343.781 2L299.68 2" stroke="#34495E" stroke-width="3" stroke-linecap="round"/>
<g opacity="0.35">
<path opacity="0.35" d="M248.795 165.614C248.795 207.748 214.639 241.905 172.504 241.905C130.37 241.905 96.2139 207.748 96.2139 165.614C96.2139 123.48 130.37 89.3237 172.504 89.3237C214.639 89.3237 248.795 123.48 248.795 165.614Z" stroke="#34495E"/>
<path opacity="0.35" d="M172.504 241.027C214.153 241.027 247.917 207.264 247.917 165.615C247.917 123.965 214.153 90.2021 172.504 90.2021C130.855 90.2021 97.0918 123.965 97.0918 165.615C97.0918 207.264 130.855 241.027 172.504 241.027Z" stroke="#34495E" stroke-width="2"/>
</g>
<path d="M153.429 146.5C157.793 142.259 163.486 139.643 169.557 139.099C175.626 138.556 181.691 140.118 186.738 143.513L185.027 145.539C180.521 142.587 175.146 141.241 169.772 141.726C164.4 142.211 159.354 144.497 155.45 148.206L153.429 146.5ZM152.736 183.78C148.587 179.422 146.039 173.778 145.519 167.773C144.999 161.768 146.538 155.771 149.875 150.765L151.901 152.477C149.008 156.941 147.684 162.246 148.146 167.554C148.608 172.861 150.828 177.857 154.448 181.754L152.736 183.78ZM173.787 189.278C179.126 188.858 184.164 186.66 188.1 183.042L190.132 184.755C185.739 188.903 180.055 191.431 174.019 191.909C167.982 192.387 161.968 190.784 156.975 187.376L158.681 185.355C163.132 188.313 168.451 189.696 173.787 189.278ZM195.696 163.543C195.254 158.14 192.991 153.051 189.284 149.107L190.99 147.085C195.231 151.483 197.826 157.215 198.328 163.315C198.829 169.416 197.204 175.496 193.737 180.527L191.717 178.827C194.732 174.333 196.138 168.946 195.696 163.543Z" fill="#2C3F50" stroke="#34495E"/>
<path d="M296.955 230.567L193.797 47.4422C185 31.449 161.01 31.449 152.213 47.4422L49.0557 230.567C40.2596 246.561 51.455 266.553 69.8474 266.553H275.363C294.555 265.753 305.751 246.561 296.955 230.567Z" fill="#E24C4B"/>
<path d="M173.005 59.437L276.163 242.562H69.8477L173.005 59.437Z" fill="white"/>
<path d="M156.212 143.403L162.61 185.786C163.409 190.584 167.407 194.582 173.005 194.582C177.803 194.582 182.602 190.584 183.401 185.786L189.799 143.403C191.398 133.007 183.401 124.211 173.005 124.211C162.609 124.21 155.412 133.007 156.212 143.403Z" fill="#3F4448"/>
<path d="M173.004 222.57C178.304 222.57 182.601 218.274 182.601 212.974C182.601 207.674 178.304 203.378 173.004 203.378C167.705 203.378 163.408 207.674 163.408 212.974C163.408 218.274 167.705 222.57 173.004 222.57Z" fill="#3F4448"/>
</svg>
