<svg width="50" height="50" viewBox="0 0 50 50" fill="none" xmlns="http://www.w3.org/2000/svg">
<path d="M32.8125 24.2188H45.3125V21.875H43.75V17.1875H42.9688V13.2812H41.4062V17.1875H40.625V21.875H32.8125V24.2188Z" fill="#FFFFFF"/>
<path d="M27.3438 2.34375H25.7812V6.23438L27.3438 5.92188V2.34375Z" fill="#FFFFFF"/>
<path d="M30.4688 0.78125H28.9062V5.60938L30.4688 5.29688V0.78125Z" fill="#FFFFFF"/>
<path d="M33.5938 2.34375H32.0312V4.98438L33.5938 4.67188V2.34375Z" fill="#FFFFFF"/>
<path d="M28.7109 42.5315C29.2641 42.3058 29.8594 42.1878 30.4688 42.1878V24.2191H31.25V20.3128H36.7188V5.64093L22.6562 8.45343V40.823C23.1578 40.6948 23.6812 40.6253 24.2188 40.6253C25.9336 40.6253 27.5484 41.33 28.7109 42.5315ZM31.25 10.9378H34.375V15.6253H31.25V10.9378ZM25 10.9378H28.125V15.6253H25V10.9378ZM25 18.7503H28.125V23.4378H25V18.7503ZM25 26.5628H28.125V31.2503H25V26.5628ZM25 34.3753H28.125V39.0628H25V34.3753Z" fill="#FFFFFF"/>
<path d="M36.7188 40.625C37.2562 40.625 37.7789 40.6977 38.2812 40.8273V28.9062H35.1562V40.832C35.6609 40.7008 36.1836 40.625 36.7188 40.625Z" fill="#FFFFFF"/>
<path d="M42.132 43.75H42.1875C42.4523 43.75 42.7109 43.7789 42.9688 43.8117V28.9062H39.8438V41.4602C40.7852 42.0039 41.5789 42.7883 42.132 43.75Z" fill="#FFFFFF"/>
<path d="M46.0938 45.1453V25.7812H32.0312V42.4734C32.0953 42.4961 32.1633 42.5062 32.2266 42.532C32.6313 42.1133 33.0938 41.7594 33.5938 41.4703V27.3437H44.5312V44.2266C45.0961 44.457 45.6203 44.7648 46.0938 45.1453Z" fill="#FFFFFF"/>
<path d="M46.2375 47.6562C45.4266 46.2578 43.9203 45.3125 42.1875 45.3125C41.8398 45.3125 41.5016 45.3531 41.175 45.425C40.5641 43.5469 38.8016 42.1875 36.7188 42.1875C34.9508 42.1875 33.4125 43.1672 32.6141 44.6125C32.0539 44.0812 31.3016 43.75 30.4688 43.75C29.6359 43.75 28.8836 44.0812 28.3234 44.6125C27.525 43.1672 25.9867 42.1875 24.2188 42.1875C22.1125 42.1875 20.332 43.5766 19.7406 45.4875C19.4273 45.3828 19.0984 45.3125 18.75 45.3125L18.3477 45.3406C17.8117 44.3906 16.793 43.75 15.625 43.75C13.8992 43.75 12.5 45.1492 12.5 46.875C12.5 47.1453 12.5367 47.4062 12.6008 47.6562H11.0109C10.9672 47.3984 10.9375 47.1383 10.9375 46.875C10.9375 44.2898 13.0398 42.1875 15.625 42.1875C16.875 42.1875 18.057 42.6891 18.9242 43.5453C19.4688 42.6734 20.218 41.9625 21.0938 41.4586V13.2812H10.1562V21.5469C10.707 21.7633 11.2328 22.05 11.7188 22.4125V21.0938H13.2812V22.6562H12.0172C12.3055 22.8969 12.5828 23.1555 12.8375 23.4469C13.8078 23.4977 14.7242 23.7727 15.5531 24.2188H16.4062V24.7664C18.2867 26.1695 19.5312 28.5492 19.5312 31.25C19.5312 34.6437 17.5703 37.5305 14.8438 38.607V39.9305L10.1562 45.3984V47.6562H8.59375V44.8195L13.2812 39.3516V37.4289C15.9266 36.993 17.9688 34.3922 17.9688 31.25C17.9688 27.8039 15.5148 25 12.5 25C12.3656 25 12.2281 25.0086 12.0891 25.0219C11.0859 23.5828 9.54297 22.6562 7.8125 22.6562C4.79766 22.6562 2.34375 25.4602 2.34375 28.9062C2.34375 32.0484 4.38594 34.6492 7.03125 35.0852V28.125H8.59375V35.6078C9.43125 36.5922 10.5266 37.2297 11.7188 37.4281V38.7734L8.59375 42.4195V35.6078C8.46484 35.4562 8.33984 35.2992 8.22344 35.132C8.0875 35.1438 7.95156 35.1562 7.8125 35.1562C7.54688 35.1562 7.2875 35.1273 7.03125 35.0852V36.1031C6.37734 35.5117 5.56719 35.1562 4.6875 35.1562C2.53359 35.1562 0.78125 37.2586 0.78125 39.8438C0.78125 42.1078 2.12578 44.0008 3.90625 44.4367V47.6562H0.78125V49.2188H49.2188V47.6562H46.2375ZM13.2812 19.5312H11.7188V17.9688H13.2812V19.5312ZM13.2812 16.4062H11.7188V14.8438H13.2812V16.4062ZM16.4062 22.6562H14.8438V21.0938H16.4062V22.6562ZM16.4062 19.5312H14.8438V17.9688H16.4062V19.5312ZM16.4062 16.4062H14.8438V14.8438H16.4062V16.4062ZM17.9688 14.8438H19.5312V16.4062H17.9688V14.8438ZM17.9688 17.9688H19.5312V19.5312H17.9688V17.9688ZM17.9688 21.0938H19.5312V22.6562H17.9688V21.0938ZM17.9688 25.7812V24.2188H19.5312V25.7812H17.9688ZM5.46875 44.4367C6.04688 44.2953 6.57656 43.9961 7.03125 43.5852V47.6562H5.46875V44.4367Z" fill="#FFFFFF"/>
</svg>
