<svg width="49" height="47" viewBox="0 0 49 47" fill="none" xmlns="http://www.w3.org/2000/svg">
<path d="M15.7499 19.6974L11.0337 22.4116H15.7499V19.6974Z" fill="#FFFFFF"/>
<path d="M17.5 34.1614H13.125V37.5185H17.5V34.1614Z" fill="#FFFFFF"/>
<path d="M24.4999 22.4116V19.6974L19.7837 22.4116H24.4999Z" fill="#FFFFFF"/>
<path d="M7.87497 34.1614H3.5V37.5185H7.87497V34.1614Z" fill="#FFFFFF"/>
<path d="M6.99994 19.6974L2.28369 22.4116H6.99994V19.6974Z" fill="#FFFFFF"/>
<path d="M43.75 8.1441H40.25V9.8227H43.75V8.1441Z" fill="#FFFFFF"/>
<path d="M33.2502 22.4116V19.6974L28.5339 22.4116H33.2502Z" fill="#FFFFFF"/>
<path d="M22.4872 8.14385C22.9704 8.14385 23.3622 8.51958 23.3622 8.98315C23.3622 9.44664 22.9705 9.82245 22.4872 9.82245C22.3586 9.82245 22.2247 9.80822 22.0891 9.80143C22.4733 10.6743 23.5635 11.9525 26.5823 12.2639C26.3865 11.7494 26.2743 11.209 26.2498 10.6617C26.2498 10.1982 26.6415 9.82236 27.1248 9.82236C27.6081 9.82236 27.9998 10.1981 27.9998 10.6617C28.0459 11.3756 28.3057 12.0615 28.7479 12.6373C29.6579 13.6264 31.0053 14.1397 32.3748 14.0188H38.0142L38.4998 10.6054V7.30455C38.4998 6.84107 38.8915 6.46526 39.3748 6.46526H41.9998V3.94745C41.9378 2.88729 41.4158 1.90057 40.5605 1.2265C39.0196 -0.0232213 36.8574 0.19498 35.7069 0.436773C35.3071 0.522511 34.9147 0.636706 34.5326 0.778349C35.3407 1.64913 35.8144 2.75877 35.8748 3.92313C35.8816 4.14573 35.796 4.36182 35.6366 4.52384C35.4773 4.68587 35.2574 4.78042 35.0253 4.78675H34.9999C34.5264 4.78693 34.1387 4.42581 34.1249 3.97178C34.0384 2.88041 33.4487 1.88303 32.5166 1.25165C30.7411 -0.0324929 28.2622 0.19241 26.9498 0.440077C26.7669 0.475327 26.591 0.52398 26.4108 0.571806C26.4982 0.612931 26.577 0.643958 26.6636 0.68848C27.0805 0.910536 27.2353 1.41193 27.0115 1.81593C26.7878 2.21993 26.2681 2.37763 25.8429 2.17072C25.2662 1.87009 24.6627 1.61958 24.0395 1.42212C22.7472 0.973693 21.3154 1.08578 20.116 1.72927C18.6767 2.67203 18.0395 4.40019 18.541 6.00122C19.0511 7.58316 20.9857 8.14385 22.4872 8.14385Z" fill="#FFFFFF"/>
<path d="M37.7527 28.2868H46.2472L43.861 11.5011H40.1388L37.7527 28.2868Z" fill="#FFFFFF"/>
<path d="M39.375 45.0726H34.125H30.625H21.875H0V46.7511H49V45.0726H44.625H39.375Z" fill="#FFFFFF"/>
<path d="M43.75 39.1976H40.25V43.394H43.75V39.1976Z" fill="#FFFFFF"/>
<path d="M27.125 41.7155H22.75V43.3941H29.75V31.6441H22.75V33.3227H27.125C27.6082 33.3227 28 33.6984 28 34.162C28 34.6255 27.6083 35.0013 27.125 35.0013H22.75V36.6799H27.125C27.6082 36.6799 28 37.0556 28 37.5192C28 37.9828 27.6083 38.3585 27.125 38.3585H22.75V40.0371H27.125C27.6082 40.0371 28 40.4128 28 40.8764C27.9999 41.3398 27.6082 41.7155 27.125 41.7155Z" fill="#FFFFFF"/>
<path d="M35 29.9649V32.4828H38.5C38.9832 32.4828 39.375 32.8585 39.375 33.3221C39.375 33.7857 38.9833 34.1614 38.5 34.1614H35V43.3935H38.5V39.1971C38.5 38.27 39.2835 37.5185 40.25 37.5185H43.7499C44.7165 37.5185 45.5 38.27 45.5 39.1971V43.3935H49V29.9649H35ZM46.375 34.1613H42C41.5168 34.1613 41.125 33.7856 41.125 33.322C41.125 32.8584 41.5167 32.4827 42 32.4827H46.375C46.8582 32.4827 47.25 32.8584 47.25 33.322C47.25 33.7856 46.8583 34.1613 46.375 34.1613Z" fill="#FFFFFF"/>
<path d="M21 31.6435C21 30.7164 21.7836 29.9649 22.7501 29.9649H29.7501C30.7166 29.9649 31.5001 30.7164 31.5001 31.6435V43.3935H33.2501V24.0899H0V26.6078H6.125C6.60821 26.6078 7.00001 26.9835 7.00001 27.4471C7.00001 27.9107 6.6083 28.2864 6.125 28.2864H0V43.3935H21V31.6435ZM9.62496 37.5185C9.62496 38.4456 8.84144 39.1971 7.87493 39.1971H3.49996C2.53345 39.1971 1.74993 38.4456 1.74993 37.5185V34.1614C1.74993 33.2343 2.53345 32.4828 3.49996 32.4828H7.87493C8.84144 32.4828 9.62496 33.2343 9.62496 34.1614V37.5185ZM19.25 37.5185C19.25 38.4456 18.4665 39.1971 17.5 39.1971H13.125C12.1585 39.1971 11.375 38.4456 11.375 37.5185V34.1614C11.375 33.2343 12.1585 32.4828 13.125 32.4828H17.5C18.4665 32.4828 19.25 33.2343 19.25 34.1614V37.5185ZM19.25 28.2863H9.62496C9.14175 28.2863 8.74995 27.9106 8.74995 27.447C8.74995 26.9834 9.14166 26.6077 9.62496 26.6077H19.2499C19.7331 26.6077 20.1249 26.9834 20.1249 27.447C20.1249 27.9106 19.7332 28.2863 19.25 28.2863Z" fill="#FFFFFF"/>
</svg>
