<svg width="47" height="45" viewBox="0 0 47 45" fill="none" xmlns="http://www.w3.org/2000/svg">
<g clip-path="url(#clip0)">
<path d="M25.1703 18.4492H24.9707V44.9757H32.5524L25.1703 18.4492Z" fill="#FFFFFF"/>
<path d="M22.0294 44.9757V18.4492H21.8297L14.4478 44.9757H22.0294Z" fill="#FFFFFF"/>
<path d="M28.2141 18.4492L35.5962 44.9757H44.6152L28.6902 18.4492H28.2141Z" fill="#FFFFFF"/>
<path d="M11.4038 44.9757L18.7859 18.4492H18.3099L2.38477 44.9757H11.4038Z" fill="#FFFFFF"/>
<path d="M11.7821 23.4869C11.9418 23.4869 11.5556 24.049 14.9175 18.4492H1.47061C0.658464 18.4492 0 19.0796 0 19.8572V23.4869H11.7821Z" fill="#FFFFFF"/>
<path d="M0 26.3029V29.4178H8.33254L10.2025 26.3029H0Z" fill="#FFFFFF"/>
<path d="M0 32.2339V35.3487H4.77193L6.6419 32.2339H0Z" fill="#FFFFFF"/>
<path d="M0 38.1647V43.2973L3.08138 38.1647H0Z" fill="#FFFFFF"/>
<path d="M38.6676 29.4178H47V26.3029H36.7976L38.6676 29.4178Z" fill="#FFFFFF"/>
<path d="M47.0001 32.2339H40.3582L42.2342 35.3588C42.3654 35.3444 41.9567 35.3487 47.0001 35.3487V32.2339H47.0001Z" fill="#FFFFFF"/>
<path d="M35.2178 23.4869H47V19.8572C47 19.0796 46.3415 18.4492 45.5294 18.4492H32.0825C35.4425 24.0459 35.0576 23.4869 35.2178 23.4869Z" fill="#FFFFFF"/>
<path d="M43.9187 38.1647L47 43.2974V38.1647H43.9187Z" fill="#FFFFFF"/>
<path d="M37.8335 12.4802C40.1187 12.4802 41.0846 11.285 41.4924 10.2822C41.9197 9.23199 41.9197 7.96837 41.9197 6.63057C41.9197 3.95101 40.6148 0.0249023 37.8335 0.0249023C35.0591 0.0249023 33.7473 3.93561 33.7473 6.63057C33.7473 7.96837 33.7473 9.23208 34.1745 10.2822C34.5823 11.285 35.5483 12.4802 37.8335 12.4802Z" fill="#FFFFFF"/>
<path d="M43.3895 14.7475L41.6825 13.2713C41.1892 12.8446 40.4585 12.7881 39.8999 13.1328L37.8334 14.4083L35.7669 13.1328C35.2082 12.7881 34.4776 12.8449 33.9844 13.2713L32.2774 14.7474C31.6746 15.2687 31.6274 16.159 32.1718 16.7362C32.7161 17.3132 33.6461 17.3583 34.2488 16.8373L35.12 16.0839L37.0366 17.2668C37.5284 17.5705 38.1492 17.5623 38.6285 17.2677C38.8312 17.1431 38.1381 17.5707 40.547 16.0839L41.4181 16.8373C42.0208 17.3583 42.9508 17.3132 43.4952 16.7362C44.0395 16.1591 43.9921 15.2687 43.3895 14.7475Z" fill="#FFFFFF"/>
<path d="M23.5 12.4802C25.7852 12.4802 26.751 11.285 27.1589 10.2822C27.5862 9.23199 27.5862 7.96837 27.5862 6.63057C27.5862 3.95101 26.2813 0.0249023 23.5 0.0249023C20.7256 0.0249023 19.4138 3.93429 19.4138 6.63057C19.4138 7.96837 19.4138 9.23208 19.841 10.2822C20.2489 11.285 21.2148 12.4802 23.5 12.4802Z" fill="#FFFFFF"/>
<path d="M29.056 14.7475L27.349 13.2714C26.8557 12.8448 26.125 12.7882 25.5664 13.1329L23.4999 14.4084L21.4335 13.1329C20.8748 12.7882 20.1441 12.845 19.6509 13.2714L17.9439 14.7475C17.3411 15.2689 17.2939 16.1592 17.8383 16.7363C18.3826 17.3133 19.3126 17.3585 19.9153 16.8374L20.7865 16.084L22.7031 17.2669C23.1972 17.572 23.8182 17.5611 24.2955 17.2675C24.4627 17.1646 23.7758 17.5885 26.2135 16.0839L27.0846 16.8373C27.6873 17.3584 28.6174 17.3132 29.1617 16.7362C29.706 16.1592 29.6587 15.2688 29.056 14.7475Z" fill="#FFFFFF"/>
<path d="M9.16674 12.4802C11.452 12.4802 12.4178 11.285 12.8257 10.2822C13.2529 9.23199 13.2529 7.96837 13.2529 6.63057C13.2529 3.95154 11.948 0.0249023 9.16674 0.0249023C6.39235 0.0249023 5.08057 3.93429 5.08057 6.63057C5.08057 7.96837 5.08057 9.23208 5.50778 10.2822C5.91559 11.285 6.88151 12.4802 9.16674 12.4802Z" fill="#FFFFFF"/>
<path d="M14.7227 14.7475L13.0157 13.2714C12.5225 12.8448 11.7916 12.7882 11.2331 13.1329L9.16667 14.4084L7.10019 13.1329C6.54155 12.7882 5.81084 12.845 5.31764 13.2714L3.61063 14.7475C3.00787 15.2689 2.96062 16.1592 3.50502 16.7363C4.04933 17.3133 4.97931 17.3584 5.58207 16.8374L6.45322 16.084L8.36988 17.267C8.86612 17.5733 9.48699 17.5599 9.96236 17.2674C10.1268 17.1734 9.31961 17.6643 11.8801 16.0839L12.7513 16.8373C13.3539 17.3584 14.284 17.3132 14.8283 16.7362C15.3727 16.1592 15.3254 15.2688 14.7227 14.7475Z" fill="#FFFFFF"/>
</g>
<defs>
<clipPath id="clip0">
<rect width="47" height="45" fill="white"/>
</clipPath>
</defs>
</svg>
